<?xml  version="1.0" encoding="utf-8" standalone="no"?>
<svg xmlns="http://www.w3.org/2000/svg" width="85" height="3427" viewBox="0 0 85 3427">
	<svg width="57" height="56" id="icon-add-user" y="0">
		<path d="M45.343 53.944c.032-6.037-6.2-9.61-12.242-12.213-6.021-2.591-7.944-4.775-7.944-9.454 0-2.8 1.838-1.891 2.643-7.036.34-2.132 1.962-.034 2.274-4.9 0-1.939-.888-2.421-.888-2.421s.45-2.873.627-5.085a8.764 8.764 0 0 0-6.526-8.777c-.941-.968-1.579-2.5 1.324-4.037-6.352-.297-7.83 3.026-11.21 5.47a8.9 8.9 0 0 0-3.516 7.345c.184 2.212.633 5.085.633 5.085s-.89.482-.89 2.421c.312 4.872 1.939 2.77 2.278 4.9.8 5.143 2.646 4.231 2.646 7.036 0 4.679-.6 6.267-6.625 8.858C1.88 43.739.001 47.908.032 53.946c.009 1.806-.031 2.471-.031 2.471h45.372s-.039-.663-.032-2.471zm2.868-25.887V19.55h-5.672v8.507h-8.508v5.673h8.507v8.507h5.673V33.73h8.507v-5.673z" fill="#fff" />
	</svg>
	<svg width="60" height="60" id="icon-announcement" y="56">
		<path d="M53.55 0H5.95A5.942 5.942 0 0 0 .03 5.95L0 59.5l11.9-11.9h41.65a5.967 5.967 0 0 0 5.95-5.95V5.95A5.967 5.967 0 0 0 53.55 0zM32.725 26.775h-5.95V8.925h5.95zm0 11.9h-5.95v-5.95h5.95z" fill="#fff" />
	</svg>
	<svg width="29" height="18" id="icon-arrow-long-left" y="116">
		<path d="M20.8 17.6V12H0V5.6h20.8V0l8.4 8.8z" />
	</svg>
	<svg width="29" height="18" id="icon-arrow-long-right-white" y="134">
		<path d="M20.8 17.6V12H0V5.6h20.8V0l8.4 8.8z" fill="#fff" />
	</svg>
	<svg width="29" height="18" id="icon-arrow-long-right" y="152">
		<path d="M8.4 17.6V12h20.8V5.6H8.4V0L0 8.8z" />
	</svg>
	<svg width="59" height="72" id="icon-beenhere" y="170">
		<path d="M52 0H6.5A6.491 6.491 0 0 0 .033 6.5L0 48.522a6.518 6.518 0 0 0 2.86 5.4L29.25 71.5l26.357-17.583a6.518 6.518 0 0 0 2.86-5.4L58.5 6.5A6.519 6.519 0 0 0 52 0zM22.75 48.75L6.5 32.5l4.583-4.583L22.75 39.553l24.667-24.668L52 19.5z" fill="#fff" />
	</svg>
	<svg width="34" height="44" id="icon-calendar" y="242">
		<path d="M9.785 0H6.524v6.524h3.262zm17.94 8.155h-3.261v3.262h3.262zm-17.94 0H6.524v3.262h3.262zm19.47-3.262l.1 8.155h-6.522V4.893H11.416v8.155H4.893V4.893H0v39.141h34.249V4.893zM9.785 39.041H4.893v-4.893h4.893zm0-6.524H4.893v-4.893h4.893zm0-6.524H4.893V21.1h4.893zm6.524 13.047h-4.893v-4.892h4.893zm0-6.524h-4.893v-4.892h4.893zm0-6.524h-4.893V21.1h4.893zm6.524 13.047H17.94v-4.891h4.893zm0-6.524H17.94v-4.891h4.893zm0-6.524H17.94V21.1h4.893zm6.524 13.047h-4.893v-4.89h4.893zm0-6.524h-4.893v-4.89h4.893zm0-6.524h-4.893V21.1h4.893zM27.725 0h-3.261v6.524h3.262z" fill="#fff" />
	</svg>
	<svg width="26" height="26" id="icon-cancel" y="286">
		<path d="M13 26a13 13 0 1 1 13-13 13 13 0 0 1-13 13zm5.961-16.791a.626.626 0 0 0 0-.885L17.633 7a.626.626 0 0 0-.885 0l-3.761 3.761L9.226 7a.626.626 0 0 0-.885 0L7.013 8.327a.626.626 0 0 0 0 .885l3.762 3.762-3.762 3.76a.626.626 0 0 0 0 .885l1.328 1.328a.626.626 0 0 0 .885 0l3.761-3.762 3.761 3.762a.626.626 0 0 0 .885 0l1.328-1.328a.626.626 0 0 0 0-.885L15.2 12.971l3.762-3.762z" fill="#fff" />
	</svg>
	<svg width="32" height="29" id="icon-chat" y="312">
		<path d="M9.28 17.92V8H3.2A3.209 3.209 0 0 0 0 11.2v9.6A3.209 3.209 0 0 0 3.2 24h1.6v4.8L9.6 24h8a3.209 3.209 0 0 0 3.2-3.2v-2.912a1.53 1.53 0 0 1-.32.034H9.28zM28.8 0H14.4a3.209 3.209 0 0 0-3.2 3.2V16h11.2l4.8 4.8V16h1.6a3.208 3.208 0 0 0 3.2-3.2V3.2A3.209 3.209 0 0 0 28.8 0z" fill="#fff" />
	</svg>
	<svg width="16" height="17" id="icon-check" y="341">
		<path d="M5.909 16.655a1.656 1.656 0 0 1-1.322-.653L.336 10.38a1.658 1.658 0 0 1 2.645-2l2.8 3.693L12.811.78a1.66 1.66 0 0 1 2.816 1.755L7.319 15.871a1.654 1.654 0 0 1-1.332.781h-.076z" fill="#fff" />
	</svg>
	<svg width="10" height="17" id="icon-chevron-small-left" y="358">
		<path d="M.383 15.246a1.322 1.322 0 0 0 0 1.86 1.291 1.291 0 0 0 1.842 0l7.281-7.43a1.323 1.323 0 0 0 0-1.861L2.224.385a1.294 1.294 0 0 0-1.842 0 1.322 1.322 0 0 0 0 1.86l5.972 6.5-5.972 6.5z" />
	</svg>
	<svg width="10" height="17" id="icon-chevron-small-right" y="375">
		<path d="M9.506 15.246a1.322 1.322 0 0 1 0 1.86 1.291 1.291 0 0 1-1.842 0L.383 9.676a1.323 1.323 0 0 1 0-1.861L7.664.385a1.294 1.294 0 0 1 1.842 0 1.322 1.322 0 0 1 0 1.86l-5.972 6.5 5.972 6.5z" />
	</svg>
	<svg width="24" height="24" id="icon-circle-delete" y="392">
		<g data-name="Group 79" transform="translate(-1105 -635)">
			<circle data-name="Ellipse 45" cx="12" cy="12" r="12" transform="translate(1105 635)" />
			<path d="M1113.506 650.986a1.156 1.156 0 0 0 1.153 1.153h4.612a1.156 1.156 0 0 0 1.153-1.153v-6.918h-6.918zm7.495-8.648h-2.019l-.576-.576h-2.883l-.577.577h-2.017v1.153H1121z" fill="#fff" />
		</g>
	</svg>
	<svg width="25" height="25" id="icon-circle-done" y="416">
		<g data-name="Group 98" transform="translate(-1057.703 -389)">
			<circle data-name="Ellipse 44" cx="12" cy="12" r="12" transform="translate(1058 389)" fill="#fff" />
			<path d="M1069.988 389a12.285 12.285 0 1 0 12.286 12.285A12.29 12.29 0 0 0 1069.988 389zm-2.457 18.428l-6.142-6.143 1.732-1.732 4.41 4.4 9.325-9.325 1.732 1.745z" fill="#1fc38e" />
		</g>
	</svg>
	<svg width="22" height="22" id="icon-circle-info" y="441">
		<path d="M11 0a11 11 0 1 0 11 11A11 11 0 0 0 11 0zm1.1 16.5H9.9V9.9h2.2zm0-8.8H9.9V5.5h2.2z" fill="#939393" />
	</svg>
	<svg width="14" height="14" id="icon-close" y="463">
		<path d="M14 1.41L12.59 0 7 5.59 1.41 0 0 1.41 5.59 7 0 12.59 1.41 14 7 8.41 12.59 14 14 12.59 8.41 7z" fill="#fff" />
	</svg>
	<svg width="50" height="35" id="icon-credit-card" y="477">
		<path d="M44.713 0H4.968A4.981 4.981 0 0 0 0 4.968v24.841a4.981 4.981 0 0 0 4.968 4.968h39.745a4.983 4.983 0 0 0 4.968-4.968V4.968A4.983 4.983 0 0 0 44.713 0zm0 29.809H4.968V14.9h39.745zm0-22.357H4.968V4.968h39.745zM9.936 20.121v1.49h1.49v-1.49zm8.943 2.979v1.494h2.981V23.1h1.49v-1.49h1.49v-1.49h-2.98v1.49h-1.494v1.49zm5.962 1.494V23.1h-1.494v1.494zm-7.452 0V23.1h-2.981v1.494zm1.49-2.984h1.49v-1.49h-2.98v2.98h1.49zm-5.965 1.49h1.494v-1.49H15.9v-1.49h-2.983v1.49h-1.49v1.49H9.936v1.494h2.978z" fill="#fff" />
	</svg>
	<svg width="22" height="22" id="icon-dashboard-active" y="512">
		<path d="M0 12.094h9.675V0H0zm0 9.676h9.675v-7.257H0zm12.094 0h9.676V9.675h-9.676zm0-21.77v7.257h9.676V0z" fill="#1fc38e" />
	</svg>
	<svg width="22" height="22" id="icon-date" y="534">
		<path d="M19.448 2.431h-1.216v2.431h-3.646V2.431H7.293v2.431H3.646V2.431H2.431A2.437 2.437 0 0 0 0 4.862v14.586a2.437 2.437 0 0 0 2.431 2.431h17.017a2.438 2.438 0 0 0 2.431-2.431V4.862a2.438 2.438 0 0 0-2.431-2.431zm0 17.017H2.431V9.724h17.017zM6.685 0H4.254v4.254h2.431V0zm10.939 0h-2.43v4.254h2.431V0z" />
	</svg>
	<svg width="22" height="22" id="icon-decline" y="556">
		<path d="M13.7 6.531L10.885 9.35 8.066 6.531 6.531 8.066l2.819 2.819L6.531 13.7l1.535 1.535 2.819-2.819 2.815 2.823 1.539-1.539-2.819-2.815 2.819-2.819zM10.885 0A10.885 10.885 0 1 0 21.77 10.885 10.875 10.875 0 0 0 10.885 0zm0 19.593a8.708 8.708 0 1 1 8.708-8.708 8.719 8.719 0 0 1-8.708 8.708z" fill="#fff" />
	</svg>
	<svg width="10" height="13" id="icon-delete" y="578">
		<path d="M.745 11.915A1.494 1.494 0 0 0 2.234 13.4h5.957a1.494 1.494 0 0 0 1.489-1.489V2.979H.745zM10.426.745H7.819L7.074 0H3.351l-.745.745H0v1.489h10.425z" fill="#a8a8a8" />
	</svg>
	<svg width="18" height="13" id="icon-done" y="591">
		<path d="M5.6 10.6L1.4 6.4 0 7.8l5.6 5.6 12-12L16.2 0z" fill="#1fc38e" />
	</svg>
	<svg width="15" height="17" id="icon-drink" y="604">
		<path d="M14.342 1.513A3.607 3.607 0 0 0 14.768 0H0a3.607 3.607 0 0 0 .426 1.513L6.461 9.23v5.538H4.615a1.808 1.808 0 0 0-1.846 1.846H12a1.808 1.808 0 0 0-1.846-1.846H8.307V9.23zm-7.511 3.1A1.477 1.477 0 1 1 8.308 6.09 1.476 1.476 0 0 1 6.83 4.615z" />
	</svg>
	<svg width="26" height="26" id="icon-facebook-mountain" y="621">
		<path d="M13.119 0a13.119 13.119 0 0 0 0 26.237V16.4h-3.28v-3.28h3.28v-2.46a4.1 4.1 0 0 1 4.1-4.1h4.1v3.28h-4.1a.82.82 0 0 0-.82.82v2.46h4.509l-.82 3.28H16.4v9.426A13.12 13.12 0 0 0 13.119 0z" fill="#1fc38e" />
	</svg>
	<svg width="32" height="32" id="icon-facebook" y="647">
		<path d="M16 0a16 16 0 0 0 0 32V20h-4v-4h4v-3a5 5 0 0 1 5-5h5v4h-5a1 1 0 0 0-1 1v3h5.5l-1 4H20v11.5A16 16 0 0 0 16 0z" fill="#fff" />
	</svg>
	<svg width="21" height="21" id="icon-filter" y="679">
		<path d="M10.382 0C4.648 0 0 1.453 0 3.244v1.947l7.787 7.787v6.489c0 .717 1.162 1.3 2.6 1.3s2.6-.581 2.6-1.3v-6.489l7.787-7.787V3.244C20.764 1.453 16.116 0 10.382 0zM1.914 2.815a8.8 8.8 0 0 1 1.973-.76 25.6 25.6 0 0 1 6.5-.757 25.578 25.578 0 0 1 6.5.757 8.861 8.861 0 0 1 1.973.76 2.228 2.228 0 0 1 .574.43 2.272 2.272 0 0 1-.574.43 8.81 8.81 0 0 1-1.973.76 25.6 25.6 0 0 1-6.5.757 25.578 25.578 0 0 1-6.5-.757 8.873 8.873 0 0 1-1.973-.76 2.244 2.244 0 0 1-.574-.43 2.272 2.272 0 0 1 .574-.43z" />
	</svg>
	<svg width="51" height="63" id="icon-find" y="700">
		<path d="M50.5 55.518v-36.58L31.563 0H6.313A6.3 6.3 0 0 0 .032 6.313L0 56.813a6.3 6.3 0 0 0 6.281 6.313h37.907a6.256 6.256 0 0 0 3.756-1.262L33.961 47.88a15.783 15.783 0 1 1 7.07-13.162 15.714 15.714 0 0 1-2.62 8.68zm-34.719-20.8a9.469 9.469 0 1 0 9.469-9.468 9.456 9.456 0 0 0-9.469 9.469z" fill="#fff" />
	</svg>
	<svg width="58" height="58" id="icon-globe" y="763">
		<path d="M29.007 0a29 29 0 1 0 29 29 29.037 29.037 0 0 0-29-29zm24.737 29a24.63 24.63 0 0 1-5.125 15.045 3.943 3.943 0 0 1-.963-4.6c.916-1.994 1.154-6.611.942-8.408s-1.136-6.116-3.666-6.158-4.27-.872-5.77-3.876c-3.121-6.248 5.857-7.447 2.738-10.9-.872-.972-5.387 3.994-6.048-2.625a3.466 3.466 0 0 1 1.01-1.925 24.779 24.779 0 0 1 16.883 23.45zM25.608 4.511c-.593 1.154-2.154 1.622-3.1 2.489-2.066 1.869-2.955 1.611-4.067 3.4s-4.734 4.377-4.734 5.676 1.824 2.829 2.738 2.532a9.752 9.752 0 0 1 4.734.211c1.416.5 11.824 1 8.508 9.8-1.052 2.8-5.659 2.326-6.884 6.958a36.753 36.753 0 0 0-.861 4.532c-.076 1.469 1.039 7-.378 7s-5.251-4.951-5.251-5.85-.991-4.043-.991-6.737-4.586-2.649-4.586-6.229c0-3.227 2.487-4.834 1.928-6.384s-4.915-1.592-6.737-1.782A24.81 24.81 0 0 1 25.61 4.509zm-4.384 47.966c1.486-.785 1.637-1.8 2.985-1.852a26.915 26.915 0 0 0 4.532-.986c1.541-.336 4.3-1.9 6.726-2.1 2.049-.166 6.088.106 7.175 2.081a24.619 24.619 0 0 1-21.416 2.855z" fill="#fff" />
	</svg>
	<svg width="68" height="65" id="icon-grade" y="821">
		<path d="M34.024 51.955l21.028 12.691-5.58-23.919 18.577-16.093-24.464-2.076L34.024 0l-9.56 22.558L0 24.634l18.577 16.093L13 64.646z" fill="#fff" />
	</svg>
	<svg width="28" height="22" id="icon-heart-active" y="886">
		<path d="M25.261 1.842a7.29 7.29 0 0 0-9.688 0l-1.812 1.666-1.818-1.666a7.288 7.288 0 0 0-9.686 0 6.657 6.657 0 0 0 0 9.992l11.504 10.558 11.5-10.558a6.66 6.66 0 0 0 0-9.992zm-1.7 8.35l-9.8 9.144-9.8-9.144a4.367 4.367 0 0 1-1.37-3.35 3.907 3.907 0 0 1 1.21-3.2 4.846 4.846 0 0 1 3.3-1.243 5.165 5.165 0 0 1 3.3 1.565l3.36 2.922 3.358-2.922a5.169 5.169 0 0 1 3.3-1.565 4.851 4.851 0 0 1 3.3 1.243 3.907 3.907 0 0 1 1.208 3.2 4.364 4.364 0 0 1-1.366 3.35z" fill="#1FC38E" />
	</svg>
	<svg width="28" height="22" id="icon-heart-mountain" y="908">
		<path d="M25.262 1.84a7.3 7.3 0 0 0-9.688 0l-1.812 1.667-1.818-1.667a7.292 7.292 0 0 0-9.686 0 6.659 6.659 0 0 0 0 9.994l11.504 10.558 11.5-10.558a6.662 6.662 0 0 0 0-9.994z" fill="#1fc38e" />
	</svg>
	<svg width="28" height="22" id="icon-heart" y="930">
		<path d="M25.261 1.842a7.29 7.29 0 0 0-9.688 0l-1.812 1.666-1.818-1.666a7.288 7.288 0 0 0-9.686 0 6.657 6.657 0 0 0 0 9.992l11.504 10.558 11.5-10.558a6.66 6.66 0 0 0 0-9.992zm-1.7 8.35l-9.8 9.144-9.8-9.144a4.367 4.367 0 0 1-1.37-3.35 3.907 3.907 0 0 1 1.21-3.2 4.846 4.846 0 0 1 3.3-1.243 5.165 5.165 0 0 1 3.3 1.565l3.36 2.922 3.358-2.922a5.169 5.169 0 0 1 3.3-1.565 4.851 4.851 0 0 1 3.3 1.243 3.907 3.907 0 0 1 1.208 3.2 4.364 4.364 0 0 1-1.366 3.35z" fill="#fff" />
	</svg>
	<svg width="22" height="22" id="icon-highlight" y="952">
		<path d="M13.7 6.531L10.885 9.35 8.066 6.531 6.531 8.066l2.819 2.819L6.531 13.7l1.535 1.535 2.819-2.819 2.815 2.823 1.539-1.539-2.819-2.815 2.819-2.819zM10.885 0A10.885 10.885 0 1 0 21.77 10.885 10.875 10.875 0 0 0 10.885 0zm0 19.593a8.708 8.708 0 1 1 8.708-8.708 8.719 8.719 0 0 1-8.708 8.708z" fill="#1fc38e" />
	</svg>
	<svg width="33" height="28" id="icon-history" y="974">
		<path d="M19 0a14 14 0 0 1 0 28v-3A11 11 0 1 0 8.181 12H14l-7 8-7-8h5.143A14 14 0 0 1 19 0zm6 12v4h-8V6h4v6z" fill="#1fc38e" />
	</svg>
	<svg width="21" height="17" id="icon-image-inverted-black" y="1002">
		<path d="M20.188 0h-19A1.186 1.186 0 0 0 0 1.188v14.25a1.187 1.187 0 0 0 1.188 1.188h19a1.187 1.187 0 0 0 1.188-1.188V1.188A1.187 1.187 0 0 0 20.188 0zm-5.641 4.156a1.484 1.484 0 1 1-1.484 1.484 1.485 1.485 0 0 1 1.484-1.484zM3.563 13.063L7.5 4.015l4.476 7.246 3.837-1.906 2 3.707H3.563z" />
	</svg>
	<svg width="21" height="16" id="icon-image-inverted" y="1019">
		<path d="M19.361 0H1.139A1.138 1.138 0 0 0 0 1.139v13.666a1.139 1.139 0 0 0 1.139 1.139h18.222a1.139 1.139 0 0 0 1.139-1.139V1.139A1.139 1.139 0 0 0 19.361 0zm-5.41 3.986a1.424 1.424 0 1 1-1.424 1.424 1.424 1.424 0 0 1 1.424-1.424zM3.417 12.528l3.774-8.677 4.292 6.949 3.68-1.828 1.92 3.555H3.417z" fill="#fff" />
	</svg>
	<svg width="10" height="21" id="icon-info" y="1035">
		<path d="M7.279 0a1.935 1.935 0 0 1 2.082 2.025 2.723 2.723 0 0 1-2.773 2.6 1.856 1.856 0 0 1-2.043-2.06A2.663 2.663 0 0 1 7.279 0zM3.011 20.7c-1.1 0-1.9-.675-1.131-3.647l1.256-5.27c.219-.842.255-1.181 0-1.181a8.274 8.274 0 0 0-2.589 1.156L0 10.847c2.662-2.263 5.725-3.588 7.039-3.588 1.094 0 1.276 1.318.73 3.343l-1.44 5.539c-.255.978-.146 1.316.11 1.316a5.638 5.638 0 0 0 2.462-1.249l.621.842C6.933 19.686 4.104 20.7 3.01 20.7z" fill="#fff" />
	</svg>
	<svg width="26" height="26" id="icon-instagram-mountain" y="1056">
		<path d="M17.068 13.004a4.064 4.064 0 1 1-8.127 0 3.638 3.638 0 0 1 .066-.677H7.586v5.414a.681.681 0 0 0 .682.682h9.475a.681.681 0 0 0 .68-.682v-5.414h-1.421a3.568 3.568 0 0 1 .066.677zm-4.064 2.709a2.709 2.709 0 1 0-2.709-2.709 2.711 2.711 0 0 0 2.709 2.709zm3.251-5.553h1.624a.408.408 0 0 0 .408-.406V8.129a.408.408 0 0 0-.408-.408h-1.624a.408.408 0 0 0-.408.408v1.624a.41.41 0 0 0 .408.407zM13.004 0a13 13 0 1 0 13 13 13 13 0 0 0-13-13zm6.773 18.271a1.51 1.51 0 0 1-1.505 1.505H7.735a1.51 1.51 0 0 1-1.505-1.505V7.735A1.51 1.51 0 0 1 7.735 6.23h10.536a1.51 1.51 0 0 1 1.505 1.505z" fill="#1fc38e" />
	</svg>
	<svg width="32" height="32" id="icon-instagram" y="1082">
		<path d="M20.816 15.86a4.957 4.957 0 1 1-9.913 0 4.437 4.437 0 0 1 .081-.826H9.252v6.6a.831.831 0 0 0 .831.831h11.556a.83.83 0 0 0 .829-.831v-6.6h-1.732a4.351 4.351 0 0 1 .081.826zm-4.956 3.3a3.3 3.3 0 1 0-3.3-3.3 3.306 3.306 0 0 0 3.3 3.3zm3.965-6.774h1.98a.5.5 0 0 0 .5-.5v-1.98a.5.5 0 0 0-.5-.5h-1.98a.5.5 0 0 0-.5.5v1.98a.5.5 0 0 0 .5.505zM15.86 0a15.86 15.86 0 1 0 15.86 15.86A15.86 15.86 0 0 0 15.86 0zm8.261 22.285a1.841 1.841 0 0 1-1.836 1.836H9.435a1.841 1.841 0 0 1-1.836-1.836V9.435a1.841 1.841 0 0 1 1.836-1.836h12.85a1.841 1.841 0 0 1 1.836 1.836z" fill="#fff" />
	</svg>
	<svg width="57" height="60" id="icon-location" y="1114">
		<path d="M38.183 28.638V9.546L28.638 0l-9.546 9.546v6.364H0v44.547h57.275V28.638zM12.728 54.093H6.364v-6.364h6.364zm0-12.728H6.364V35h6.364zm0-12.728H6.364v-6.363h6.364zm19.091 25.456h-6.363v-6.364h6.364zm0-12.728h-6.363V35h6.364zm0-12.728h-6.363v-6.363h6.364zm0-12.728h-6.363V9.546h6.364zm19.092 38.184h-6.364v-6.364h6.364zm0-12.728h-6.364V35h6.364z" fill="#fff" />
	</svg>
	<svg width="55" height="68" id="icon-medal" y="1174">
		<path d="M13.327 42.52c-2.648 0-3-1.237-3-1.237L-.002 61.577l8.281-.928 4.58 6.885s9.539-19.9 9.539-19.765c-4.936-.119-2.976-5.116-9.067-5.25zm23.28 2.178a6.34 6.34 0 0 1 5.7-3.29q3.772-.051 3.82-3.822a6.333 6.333 0 0 1 3.29-5.7q3.241-1.926 1.4-5.218a6.334 6.334 0 0 1 0-6.58q1.843-3.289-1.4-5.218a6.34 6.34 0 0 1-3.29-5.7q-.051-3.769-3.82-3.82a6.337 6.337 0 0 1-5.7-3.29q-1.922-3.241-5.218-1.4a6.33 6.33 0 0 1-6.578 0q-3.289-1.843-5.218 1.4a6.336 6.336 0 0 1-5.7 3.29q-3.772.051-3.82 3.822a6.336 6.336 0 0 1-3.29 5.7q-3.241 1.929-1.4 5.218a6.334 6.334 0 0 1 0 6.58q-1.843 3.289 1.4 5.218a6.338 6.338 0 0 1 3.29 5.7q.051 3.772 3.82 3.822a6.339 6.339 0 0 1 5.7 3.29q1.926 3.241 5.218 1.4a6.339 6.339 0 0 1 6.578 0q3.289 1.84 5.218-1.4zm-5.644-10.722H27.19V19.727a13.019 13.019 0 0 1-4.883 2.862v-3.425a10.924 10.924 0 0 0 3.214-1.83 6.964 6.964 0 0 0 2.377-3.151h3.063v19.793zm14.071 8.1c-7.546.794-6.012 2.661-7.732 4.116a5.326 5.326 0 0 1-4.464 1.71L44.49 67.934l2.86-7.415 8.148 1.058-10.463-19.5z" fill="#fff" />
	</svg>
	<svg width="23" height="37" id="icon-moneybag" y="1242">
		<path d="M8.708 9.329h5.329v-2H8.708zm5.29.665h-5.29s-8.7 8.579-8.7 16.99c0 8.912 9.119 9.621 9.119 9.621a13.294 13.294 0 0 0 4.412 0s9.247-1.084 9.247-9.577-8.793-17.033-8.793-17.033zm.391 18.057a3.113 3.113 0 0 1-.871 1.086 3.8 3.8 0 0 1-1.286.656c-.062.019-.13.026-.194.042v1.48h-1.33v-1.306h-.049a5.721 5.721 0 0 1-1.054-.091 6.145 6.145 0 0 1-.859-.222 3.717 3.717 0 0 1-.622-.272 1.805 1.805 0 0 1-.36-.252.625.625 0 0 1-.157-.317 3.011 3.011 0 0 1-.046-.6c0-.175.005-.321.018-.44a1.237 1.237 0 0 1 .056-.289.316.316 0 0 1 .1-.157.252.252 0 0 1 .148-.046.7.7 0 0 1 .335.14 5.618 5.618 0 0 0 .554.309 5.066 5.066 0 0 0 .809.31 3.863 3.863 0 0 0 1.088.14 2.5 2.5 0 0 0 .727-.1 1.616 1.616 0 0 0 .546-.275 1.16 1.16 0 0 0 .343-.44 1.4 1.4 0 0 0 .119-.587 1.036 1.036 0 0 0-.2-.639 2.055 2.055 0 0 0-.53-.474 5.524 5.524 0 0 0-.74-.389 73.957 73.957 0 0 1-.855-.385 7.546 7.546 0 0 1-.855-.462 3.45 3.45 0 0 1-.741-.616 2.965 2.965 0 0 1-.53-.851 3.067 3.067 0 0 1-.2-1.176 3.116 3.116 0 0 1 .291-1.383 2.832 2.832 0 0 1 .787-.989 3.374 3.374 0 0 1 1.168-.588 4.745 4.745 0 0 1 .713-.146v-1.4h1.332v1.4c.054.007.107 0 .16.012a5.278 5.278 0 0 1 .727.16 4.165 4.165 0 0 1 .6.226 1.363 1.363 0 0 1 .347.21.616.616 0 0 1 .116.142.864.864 0 0 1 .05.157 1.512 1.512 0 0 1 .028.247 7.42 7.42 0 0 1-.006.784 1.472 1.472 0 0 1-.042.279.323.323 0 0 1-.084.161.205.205 0 0 1-.148.05.708.708 0 0 1-.3-.117c-.135-.08-.3-.164-.5-.256a5 5 0 0 0-.685-.253 3.056 3.056 0 0 0-.855-.112 2.028 2.028 0 0 0-.635.088 1.319 1.319 0 0 0-.454.244.971.971 0 0 0-.27.375 1.21 1.21 0 0 0-.088.463 1.031 1.031 0 0 0 .2.631 1.89 1.89 0 0 0 .534.474 5.421 5.421 0 0 0 .759.389q.423.183.863.385a8.836 8.836 0 0 1 .863.462 3.435 3.435 0 0 1 .755.618 2.893 2.893 0 0 1 .532.845 2.963 2.963 0 0 1 .2 1.147 3.4 3.4 0 0 1-.324 1.51zm-.438-21.388L16.658 0s-1.707 1.417-2.707 1.417S11.368.042 11.368.042 9.661 1.417 8.661 1.417A6.151 6.151 0 0 1 6.038.085l2.749 6.58z" fill="#fff" />
	</svg>
	<svg width="51" height="47" id="icon-pictures" y="1279">
		<path d="M41.295 43.677l-4.073-1.118-.009-11.266 3.9 1.1 5.617-20.969-28.459-7.627-1.871 6.994h-3.21L16.078 0l34.448 9.229-9.231 34.448zm-5.534 3.745H0V11.758h35.761zm-3.1-32.564H3.1v21.709h29.56zm-20.478 15.48l3.544-5.731 3.544 3.572 4.872-7.337 5.1 12.626H6.645l2.879-5.759zm-2.119-6.064a2.325 2.325 0 1 1 2.326-2.322 2.325 2.325 0 0 1-2.326 2.321z" fill="#fff" />
	</svg>
	<svg width="85" height="57" id="icon-playlist" y="1326">
		<path d="M48.624 16.208H0v8.1h48.624zm0-16.208H0v8.1h48.624zM0 40.52h32.416v-8.1H0zm79.015-18.234l6.078 6.078-28.324 28.365-18.275-18.235 6.078-6.078 12.2 12.156z" fill="#fff" />
	</svg>
	<svg width="43" height="44" id="icon-pricetag" y="1383">
		<path d="M42.027.891a1.33 1.33 0 0 0-2.508.878c2.045 5.879-2.015 10.269-5.111 12.62L33.154 12.6a2.918 2.918 0 0 0-2.092-1.109l-7.02.03a4.756 4.756 0 0 0-2.415.744L.944 26.767A2.223 2.223 0 0 0 .4 29.858l9.4 13.449c.7 1 1.83.881 2.833.18l20.686-14.506a4.879 4.879 0 0 0 1.523-2.022l2.2-6.925a2.923 2.923 0 0 0-.326-2.348l-.762-1.093c4.152-3.184 8.465-8.814 6.071-15.704zM32.402 21.5a3.548 3.548 0 1 1 .051-5.781c-.6.361-1.01.572-1.087.605a1.332 1.332 0 1 0 1.135 2.41c.427-.2.885-.443 1.362-.727a3.559 3.559 0 0 1-1.461 3.493z" fill="#fff" />
	</svg>
	<svg width="50" height="57" id="icon-safe" y="1427">
		<path d="M45.828 53.466l-3.817-.118v3.937h-5.728v-3.819h-22.8l-.118 3.819H7.64v-3.7l-3.821-.118A3.82 3.82 0 0 1 0 49.647V3.819A3.82 3.82 0 0 1 3.819 0h42.009a3.82 3.82 0 0 1 3.819 3.819v45.828a3.82 3.82 0 0 1-3.819 3.819zM43.919 5.729H5.729v7.558l-1.869-.038v5.887h1.869v15.117h-1.91V40.1h1.91v7.638h38.19zm-1.91 40.1H7.638V40.1h1.91v-5.847h-1.91V19.1h1.91l.04-5.809h-1.95V7.638h34.371zm-19.931-27.57a7.638 7.638 0 1 0 7.638 7.641 7.638 7.638 0 0 0-7.638-7.641zm17.067 1.825a1.91 1.91 0 0 0-3.819 0 1.885 1.885 0 0 0 .955 1.617V31.8a1.882 1.882 0 0 0-.955 1.617 1.91 1.91 0 1 0 2.746-1.7v-9.935a1.9 1.9 0 0 0 1.073-1.698zM21.959 29.12a2.864 2.864 0 1 1 2.864-2.864 2.865 2.865 0 0 1-2.864 2.864z" fill="#fff" />
	</svg>
	<svg width="19" height="19" id="icon-save-active" y="1484">
		<path d="M14.6 0H2.086A2.085 2.085 0 0 0 0 2.086v14.6a2.085 2.085 0 0 0 2.086 2.084h14.6a2.092 2.092 0 0 0 2.086-2.086V4.171zM9.385 16.684a3.128 3.128 0 1 1 3.128-3.128 3.124 3.124 0 0 1-3.128 3.128zm3.128-10.427H2.086V2.086h10.427z" fill="#1fc38e" />
	</svg>
	<svg width="19" height="19" id="icon-save" y="1503">
		<path d="M14.6 0H2.086A2.085 2.085 0 0 0 0 2.086v14.6a2.085 2.085 0 0 0 2.086 2.084h14.6a2.092 2.092 0 0 0 2.086-2.086V4.171zM9.385 16.684a3.128 3.128 0 1 1 3.128-3.128 3.124 3.124 0 0 1-3.128 3.128zm3.128-10.427H2.086V2.086h10.427z" fill="#fff" />
	</svg>
	<svg width="32" height="32" id="icon-search" y="1522">
		<path d="M31.009 27.232l-7.58-6.447a3.387 3.387 0 0 0-2.3-1 12 12 0 1 0-1.343 1.343 3.387 3.387 0 0 0 1 2.3l6.447 7.58a2.688 2.688 0 1 0 3.777-3.777zm-19.008-7.231a8 8 0 1 1 8-8 8 8 0 0 1-8 8z" fill="#fff" />
	</svg>
	<svg width="27" height="24" id="icon-send" y="1554">
		<path d="M.013 23.5l27.4-11.75L.013 0 0 9.139l19.583 2.611L0 14.361z" />
	</svg>
	<svg width="19" height="17" id="icon-shop" y="1578">
		<path d="M5.415 5.549L6.251 0H1.899L.086 4.757A1.665 1.665 0 0 0 0 5.286 2.473 2.473 0 0 0 2.718 7.4a2.578 2.578 0 0 0 2.7-1.85zm4.1 1.85a2.474 2.474 0 0 0 2.718-2.114c0-.044 0-.087-.005-.128L11.687 0H7.339l-.54 5.153v.132A2.474 2.474 0 0 0 9.514 7.4zM14.799 8.5v4.179H4.227V8.511a4.445 4.445 0 0 1-1.51.262 4.431 4.431 0 0 1-.6-.052v6.711a1.483 1.483 0 0 0 1.478 1.48h11.84a1.485 1.485 0 0 0 1.48-1.48v-6.71a4.547 4.547 0 0 1-.6.052 4.4 4.4 0 0 1-1.51-.27zm4.143-3.748L17.122 0h-4.348l.835 5.541a2.572 2.572 0 0 0 2.7 1.858 2.474 2.474 0 0 0 2.718-2.114 1.7 1.7 0 0 0-.086-.528z" fill="#fff" />
	</svg>
	<svg width="44" height="44" id="icon-time" y="1595">
		<path d="M22.051 0A22.051 22.051 0 1 0 44.1 22.051 22.049 22.049 0 0 0 22.051 0zm-.178 39.907A17.81 17.81 0 1 1 39.683 22.1a17.81 17.81 0 0 1-17.81 17.807zm5.148-16.786h-5.055v-8.535a1.679 1.679 0 1 0-3.357 0V24.8a1.677 1.677 0 0 0 1.679 1.678h6.732a1.678 1.678 0 1 0 0-3.355z" fill="#fff" />
	</svg>
	<svg width="18" height="19" id="icon-trophy" y="1639">
		<path d="M10.3 13.719c0-1.469 1.113-2.281 2.929-3.484 2.221-1.474 4.986-3.3 4.986-7.652a.711.711 0 0 0-.717-.707h-3.467C13.541.969 12.079-.002 9.11-.002s-4.43.97-4.921 1.878H.716A.711.711 0 0 0 0 2.583c0 4.347 2.763 6.178 4.986 7.651 1.814 1.205 2.93 2.018 2.93 3.485v1.327c-1.907.211-3.309.917-3.309 1.757 0 1.006 2.016 1.821 4.5 1.821s4.5-.815 4.5-1.821c0-.84-1.4-1.546-3.309-1.757zm2.811-5.118a13.065 13.065 0 0 0 1.1-5.31h2.541c-.243 2.734-1.885 4.113-3.642 5.31zM9.11 1.241c2.765 0 3.845 1.129 3.845 1.547S11.875 4.34 9.11 4.342s-3.845-1.13-3.845-1.553 1.08-1.55 3.845-1.548zM1.463 3.293H4a13.066 13.066 0 0 0 1.1 5.31c-1.757-1.2-3.4-2.576-3.642-5.31z" />
	</svg>
	<svg width="22" height="24" id="icon-user-active" y="1658">
		<path d="M8.086 2.327A3.763 3.763 0 0 0 6.6 5.441c.077.936.267 2.156.267 2.156s-.377.2-.377 1.027c.131 2.064.821 1.174.963 2.079.341 2.181 1.122 1.793 1.122 2.983 0 1.982-.818 2.91-3.37 4.009s-5.2 2.493-5.2 4.9v1.2h21.638v-1.2c0-2.4-2.642-3.794-5.2-4.9s-3.368-2.025-3.368-4.009c0-1.19.778-.8 1.12-2.983.143-.906.832-.014.966-2.079 0-.822-.377-1.027-.377-1.027s.19-1.219.266-2.156a3.716 3.716 0 0 0-2.77-3.722c-.4-.409-.671-1.06.561-1.712-2.693-.126-3.32 1.283-4.754 2.319z" fill="#1fc38e" />
	</svg>
	<svg width="22" height="24" id="icon-user" y="1682">
		<path d="M8.086 2.327A3.763 3.763 0 0 0 6.6 5.441c.077.936.267 2.156.267 2.156s-.377.2-.377 1.027c.131 2.064.821 1.174.963 2.079.341 2.181 1.122 1.793 1.122 2.983 0 1.982-.818 2.91-3.37 4.009s-5.2 2.493-5.2 4.9v1.2h21.638v-1.2c0-2.4-2.642-3.794-5.2-4.9s-3.368-2.025-3.368-4.009c0-1.19.778-.8 1.12-2.983.143-.906.832-.014.966-2.079 0-.822-.377-1.027-.377-1.027s.19-1.219.266-2.156a3.716 3.716 0 0 0-2.77-3.722c-.4-.409-.671-1.06.561-1.712-2.693-.126-3.32 1.283-4.754 2.319z" fill="#fff" />
	</svg>
	<svg width="24" height="17" id="icon-vcard" y="1706">
		<path d="M22.952 0H1.208A1.207 1.207 0 0 0 0 1.208V15.7a1.208 1.208 0 0 0 1.208 1.208h21.744A1.208 1.208 0 0 0 24.16 15.7V1.208A1.208 1.208 0 0 0 22.952 0zM15.7 4.832h4.832V6.04H15.7zm-2.416 9.426a2.79 2.79 0 0 0-.639-.366c-1.425-.614-3.577-1.522-3.577-2.629 0-.666.433-.448.626-1.666.08-.505.465-.008.538-1.161 0-.459-.21-.574-.21-.574s.106-.679.149-1.2a2.589 2.589 0 0 0-1.539-2.536c-.225-.227-.376-.134.312-.5-1.5-.071-1.853.715-2.653 1.294a2.1 2.1 0 0 0-.832 1.738c.045.523.151 1.2.151 1.2s-.211.113-.211.572c.074 1.152.459.656.538 1.161.191 1.218.627 1 .627 1.666 0 1.107-2.152 2.015-3.577 2.629a3.06 3.06 0 0 0-.569.314V2.416h10.87v11.842zm8.456-4.594H15.7V8.456h6.04z" fill="#fff" />
	</svg>
	<svg width="21" height="17" id="icon-view-active" y="1723">
		<path d="M0 11.235h4.993V6.242H0zm0 6.242h4.993v-4.994H0zM0 4.993h4.993V0H0zm6.242 6.242h14.98V6.242H6.242zm0 6.242h14.98v-4.994H6.242zM6.242 0v4.993h14.98V0z" fill="#1fc38e" />
	</svg>
	<svg width="21" height="17" id="icon-view" y="1740">
		<path d="M0 11.235h4.993V6.242H0zm0 6.242h4.993v-4.994H0zM0 4.993h4.993V0H0zm6.242 6.242h14.98V6.242H6.242zm0 6.242h14.98v-4.994H6.242zM6.242 0v4.993h14.98V0z" fill="#fff" />
	</svg>
	<svg width="22" height="15" id="icon-visibility" y="1757">
		<path d="M10.931 0A11.753 11.753 0 0 0 0 7.453a11.743 11.743 0 0 0 21.862 0A11.753 11.753 0 0 0 10.931 0zm0 12.422A4.969 4.969 0 1 1 15.9 7.453a4.971 4.971 0 0 1-4.969 4.969zm0-7.95a2.981 2.981 0 1 0 2.981 2.981 2.977 2.977 0 0 0-2.981-2.981z" />
	</svg>
	<svg width="15" height="8" id="icon-chevron-down-gray" y="1779">
		<path d="M12.831.322a1.112 1.112 0 0 1 1.565 0 1.086 1.086 0 0 1 0 1.55L8.143 8a1.114 1.114 0 0 1-1.566 0L.324 1.872a1.089 1.089 0 0 1 0-1.55 1.112 1.112 0 0 1 1.565 0l5.473 5.026L12.831.322z" fill="#b5b5b5" />
	</svg>
	<svg width="15" height="8" id="icon-chevron-down-gray" y="1790">
		<path d="M12.831.322a1.112 1.112 0 0 1 1.565 0 1.086 1.086 0 0 1 0 1.55L8.143 8a1.114 1.114 0 0 1-1.566 0L.324 1.872a1.089 1.089 0 0 1 0-1.55 1.112 1.112 0 0 1 1.565 0l5.473 5.026L12.831.322z" fill="#fff" />
	</svg>
	<svg width="6" height="11" id="icon-small-chevron-left" y="1805">
		<path d="M.245 9.762a.846.846 0 0 0 0 1.191.826.826 0 0 0 1.179 0l4.662-4.757a.847.847 0 0 0 0-1.191L1.424.246a.828.828 0 0 0-1.179 0 .846.846 0 0 0 0 1.191l3.824 4.165-3.824 4.16z" />
	</svg>
	<svg width="6" height="11" id="icon-small-chevron-right" y="1820">
		<path d="M6.086 9.763a.846.846 0 0 1 0 1.191.826.826 0 0 1-1.179 0L.245 6.197a.847.847 0 0 1 0-1.191L4.907.249a.828.828 0 0 1 1.179 0 .846.846 0 0 1 0 1.191L2.263 5.603l3.823 4.16z" />
	</svg>
	<svg width="8" height="15" id="icon-chevron-left-gray" y="1835">
		<path d="M8 1.89A1.112 1.112 0 0 0 8 .321a1.086 1.086 0 0 0-1.55 0L.322 6.578a1.114 1.114 0 0 0 0 1.566l6.128 6.253a1.089 1.089 0 0 0 1.55 0 1.112 1.112 0 0 0 0-1.565L2.974 7.358 8 1.889z" fill="#b5b5b5" />
	</svg>
	<svg width="8" height="15" id="icon-chevron-right-gray" y="1850">
		<path d="M.322 1.89a1.112 1.112 0 0 1 0-1.565 1.086 1.086 0 0 1 1.55 0L8 6.578a1.114 1.114 0 0 1 0 1.566l-6.128 6.253a1.089 1.089 0 0 1-1.55 0 1.112 1.112 0 0 1 0-1.565l5.026-5.473L.322 1.89z" fill="#b5b5b5" />
	</svg>
	<svg width="14" height="14" id="icon-close-black" y="1868">
		<path d="M14 1.41L12.59 0 7 5.59 1.41 0 0 1.41 5.59 7 0 12.59 1.41 14 7 8.41 12.59 14 14 12.59 8.41 7z"/>
	</svg>
	<svg width="64" height="56" id="icon-event" y="1890">
		<path data-name="Path 4" d="M45.968 29.263a5.369 5.369 0 0 0 6.379.3 1.376 1.376 0 0 1 .985.028c1.107.355 2.2.763 3.561 1.246-.128 8.735 1.675 17.257 7.421 24.668-11.464.913-20.484-5.428-23.587-16.526a2.255 2.255 0 0 0-2.333-2.008c-2.506-.194-4.764-.991-6.131-3.589-1.514 2.638-3.976 3.439-6.67 3.663-1.044.087-1.372.568-1.763 1.45-1.414 3.189-2.632 6.543-4.559 9.408-3.015 4.481-7.842 6.248-12.985 7.124-1.911.325-3.851.473-6.286.762 5.821-7.66 7.756-16.117 7.573-24.932 1.374-.507 2.544-.984 3.747-1.35a1.676 1.676 0 0 1 1.133.227 5.356 5.356 0 0 0 5.409-.008 1.715 1.715 0 0 1 1.389 0 5.481 5.481 0 0 0 5.418.031 1.963 1.963 0 0 1 1.548.031 5.479 5.479 0 0 0 5.275-.02 1.965 1.965 0 0 1 1.549.01 5.393 5.393 0 0 0 5.269-.01 1.614 1.614 0 0 1 1.275-.181 5.445 5.445 0 0 0 6.383-.324z" />
		<path data-name="Path 5" d="M32.323 6.243a37.091 37.091 0 0 0 12.574 13.615 36.655 36.655 0 0 0 13.464 5.321c1.124.2 1.462.633 1.306 1.706a3.418 3.418 0 0 1-2.689 3.082c-1.6.416-2.947-.391-4.116-2.386-2.234 3.364-4.97 3.373-6.8.021-2.489 3.32-4.943 3.337-6.854.05-2.52 3.232-4.91 3.261-6.638.359-1.2.685-2.323 1.681-3.6 1.959a2.973 2.973 0 0 1-3.24-1.909c-1.253.683-2.39 1.656-3.67 1.911-1.575.314-2.685-.84-3.436-2.449-.837 1.481-1.873 2.792-3.5 2.453-1.286-.268-2.429-1.228-3.674-1.9-1.121 1.769-2.755 2.566-4.46 1.638a4.587 4.587 0 0 1-1.889-2.061c-.67-1.552-.2-2.132 1.471-2.5 10.719-2.346 19.111-8.007 24.823-17.473.24-.406.511-.798.928-1.437z" />
		<path data-name="Path 6" d="M32.254 5.369a41.493 41.493 0 0 1 .051-4.224c.046-.434.745-1.184 1.054-1.14a22.738 22.738 0 0 1 4.339 1.017c1.712.6 3.351 1.411 5.144 2.183-3.136 2.311-7.217.272-10.588 2.164z" />
	</svg>
	<svg width="50" height="41" id="icon-food" y="1950">
		<path data-name="Path 7" d="M50.451 19.771c-.628 1.938-1.986 2.548-3.972 2.541-14.255-.052-28.509-.026-42.764-.029-2.738 0-3.952-1.336-3.677-4.024a2.89 2.89 0 0 1 2.952-2.765 12.4 12.4 0 0 1 7.57 2.076c1.456.914 2.832 1.953 4.287 2.966 2.864-2.583 6.547-3.117 10.122-3.476 7.15-.719 14.339-1.039 21.508-1.576a3.549 3.549 0 0 1 3.975 2.324z" />
		<path data-name="Path 8" d="M50.451 29.31c-.74 1.778-2.064 2.344-3.977 2.336q-21.379-.09-42.758 0c-3 .017-4-1.806-3.632-4.311a2.717 2.717 0 0 1 2.771-2.482c9.3.082 18.6.408 27.7 2.585a34.079 34.079 0 0 1 5.092 2.1l-.036.435c.463-.369.918-.749 1.391-1.106 2.827-2.13 5.769-3.937 9.484-4.065 1.991-.069 3.344.6 3.97 2.538z" />
		<path data-name="Path 9" d="M5.844 40.812c-2.908-1.016-3.819-2.35-3.394-5.205a2.69 2.69 0 0 1 .944-1.414c.115-.1.711.427 1.121.553a2.039 2.039 0 0 0 1.263.122 5.271 5.271 0 0 1 6.276 1.071c.245.228 1.171.07 1.52-.221 1.077-.9 2.026-.99 3.022.04a1.2 1.2 0 0 0 1.926-.033c.066-.065.161-.1.223-.169a3.321 3.321 0 0 1 4.807-.529c1.246.862 2.345.247 3.376-.354a2.317 2.317 0 0 1 3.233.352 2.625 2.625 0 0 0 4.009.3 1.906 1.906 0 0 1 2.541.04 2.984 2.984 0 0 0 3.938.069 2.2 2.2 0 0 1 2.923.023 14.631 14.631 0 0 0 1.832.972l1.5-2.323c1.5.714 1.071 2.044 1.052 3.17a3.38 3.38 0 0 1-2.214 3.131 12.48 12.48 0 0 1-1.184.406z" />
		<path data-name="Path 10" d="M24.774 12.841H4.864c-.96 0-2.094.25-2.612-.864a3.357 3.357 0 0 1 .31-3.595 12.71 12.71 0 0 1 2.826-2.674 36.122 36.122 0 0 1 36.785-1.3 26.3 26.3 0 0 1 4.065 2.949 3.719 3.719 0 0 1 1.271 1.953c.374 2.06.335 3.62-2.684 3.569-6.683-.116-13.371-.038-20.051-.038zm13.922-4.517l1.49-1.143c-.493-.3-.974-.807-1.482-.834-.464-.025-.956.47-1.435.736zm-7.031.863l1.51-1.129c-.492-.3-.971-.821-1.478-.85-.464-.027-.959.473-1.441.74zm-2.136-4.1l1.688-1.074c-.429-.322-.852-.893-1.289-.9-.537-.013-1.084.442-1.627.7z" />
		<path data-name="Path 11" d="M45.739 23.687a21.45 21.45 0 0 0-10.019 5.031c-3.877-2.531-8.3-3.128-12.7-3.566-5.759-.575-11.552-.809-17.33-1.2-.381-.026-.76-.094-1.322-.166.972-.733 40.066-.84 41.371-.099z" />
		<path data-name="Path 12" d="M14.448 19.174a19.987 19.987 0 0 0-9.839-4.746l.156-.434h41.031l.07.314a11.265 11.265 0 0 1-1.414.27c-5.175.337-10.361.552-15.523 1.022a65.5 65.5 0 0 0-8.828 1.489 46.885 46.885 0 0 0-5.653 2.085z" />
		<path data-name="Path 13" d="M46.02 32.462l-.72 2.758a2.887 2.887 0 0 1-.622-.2 3.936 3.936 0 0 0-5.088-.164 2.268 2.268 0 0 1-2-.135 3.406 3.406 0 0 0-4.339.047 1.406 1.406 0 0 1-2.1-.154c-.064-.066-.159-.1-.223-.169a3.138 3.138 0 0 0-4.542-.5 2.713 2.713 0 0 1-3.243-.1c-1.523-.946-2.917-.969-4.2.439a1.712 1.712 0 0 1-2.822.028 1.242 1.242 0 0 0-1.953-.029 1.836 1.836 0 0 1-2.857.057 3.915 3.915 0 0 0-4.42-.726 10.708 10.708 0 0 1-1.705.466l-.785-1.622z" />
	</svg>
	<svg width="51" height="49" id="icon-industriel" y="2000">
		<path data-name="Path 15" d="M51.336 48.894a2.222 2.222 0 0 1-.736.312c-1.487.03-2.974.019-4.462.013-.605 0-.743-.137-.746-.74-.007-1.454 0-2.908 0-4.362 0-.712-.146-.859-.844-.86h-5.866c-.7 0-.842.142-.844.857v4.312c0 .665-.131.793-.8.794h-17c-.634 0-.784-.159-.784-.813V32.214c0-.667.159-.828.829-.831 1.17-.006 2.34.023 3.509-.017a2.144 2.144 0 0 0 1.063-.322c2.505-1.661 4.99-3.353 7.481-5.036.111-.075.218-.155.332-.224.535-.321.931-.121.941.5.017 1.119.006 2.239.006 3.359a4.173 4.173 0 0 0 .007.451c.061.554.436.75.915.465.33-.2.641-.423.959-.638 1.979-1.337 3.952-2.682 5.944-4a1.078 1.078 0 0 1 .841-.185c.178.076.284.5.292.767.031 1.135 0 2.273.025 3.408.006.24.1.609.266.681a.947.947 0 0 0 .764-.134q3.422-2.273 6.812-4.595c.409-.279.75-.316 1.092.068zM27.66 37.87v1.35a.572.572 0 0 0 .645.647h2.7a.584.584 0 0 0 .661-.641c.008-.916.011-1.833 0-2.75a.563.563 0 0 0-.628-.618h-2.75c-.437 0-.631.236-.628.661.003.451 0 .901 0 1.351zm18.963-2.011h-1.35c-.45 0-.666.224-.663.678q.009 1.325 0 2.65a.589.589 0 0 0 .664.681h2.7a.583.583 0 0 0 .646-.656q.007-1.35 0-2.7c0-.451-.243-.663-.7-.654-.43.007-.864 0-1.297 0zm-11.267 0h-1.4a.577.577 0 0 0-.656.641c-.007.917-.008 1.833 0 2.749a.567.567 0 0 0 .631.617c.917 0 1.833.006 2.75 0a.558.558 0 0 0 .623-.618v-2.75a.569.569 0 0 0-.651-.639l-1.297-.001zm-11.348 0c-.434 0-.869-.006-1.3 0-.514.009-.695.176-.7.695q-.021 1.3 0 2.606c.008.518.192.7.7.705.869.009 1.737 0 2.606 0 .447 0 .7-.192.7-.653v-2.706c0-.459-.24-.664-.693-.654-.444.013-.879.006-1.31.006zm16.956 0c-.434 0-.869-.006-1.3 0-.518.009-.694.171-.7.694q-.021 1.3 0 2.606c.008.521.188.7.694.706.869.009 1.737 0 2.606 0 .448 0 .7-.193.7-.652q.007-1.353 0-2.706c0-.455-.237-.666-.693-.656-.439.015-.873.007-1.307.007z" />
		<path data-name="Path 16" d="M18.134 33.404v14.833c0 .883-.1.984-.969.984H5.94c-.779 0-.91-.128-.91-.893q0-14.933-.01-29.866a1.239 1.239 0 0 1 .529-1.013 6.453 6.453 0 0 1 3.006-1.283 13.761 13.761 0 0 1 7.781.53 5.516 5.516 0 0 1 .889.454 1.763 1.763 0 0 1 .931 1.671c-.044 4.861-.022 9.722-.022 14.583z" />
		<path data-name="Path 17" d="M0 40.27v-7.968c0-.793.128-.919.938-.921h2.155c.718 0 .866.145.867.844v16.187c0 .665-.141.8-.789.806q-1.2.008-2.406 0c-.61 0-.763-.16-.763-.78Q-.003 44.355 0 40.27z" />
		<path data-name="Path 18" d="M15.449 6.062c-1.5.233-2.936.408-4.353.692a5.068 5.068 0 0 0-2.927 1.622l-.139-.033a6.235 6.235 0 0 1 .061-1.081 4.931 4.931 0 0 1 2.673-3.2 13.8 13.8 0 0 1 4.161-1.193c.832-.17 1.657-.375 2.478-.593A6.962 6.962 0 0 0 20.471.465q.162-.157.332-.3c.02-.017.06-.01.121-.019a4.53 4.53 0 0 1-.7 3.024c2.771-.52 5.549-.78 7.58-3.168a4.2 4.2 0 0 1-.612 3.016 6.921 6.921 0 0 1-4.532 2.954c-1.018.241-2.071.342-3.11.486a7.032 7.032 0 0 0-4.54 1.964 3.211 3.211 0 0 1 .439-2.36z" />
		<path data-name="Path 19" d="M5.119 14.789c0-.867-.059-1.833.019-2.788a1.769 1.769 0 0 1 1.248-1.395 14.407 14.407 0 0 1 2.933-.942 12.749 12.749 0 0 1 6.662.509 6.4 6.4 0 0 1 1.038.489 2.019 2.019 0 0 1 1.162 2.039c-.062.71-.012 1.43-.012 2.264a5.743 5.743 0 0 0-3.133-1.68 13.508 13.508 0 0 0-8.073.426 13.18 13.18 0 0 0-1.844 1.078z" />
	</svg>
	<svg width="50" height="44" id="icon-kiosk" y="2058">
		<path d="M14.199 14.556L16.399 0H4.991L.225 12.477a4.368 4.368 0 0 0-.226 1.386c0 3.06 3.188 5.545 7.129 5.545 3.632 0 6.635-2.118 7.075-4.852zm10.749 4.852c3.937 0 7.129-2.485 7.129-5.545 0-.114-.009-.227-.014-.336L30.656 0H19.251l-1.414 13.516c-.005.114-.01.227-.01.347 0 3.06 3.192 5.545 7.129 5.545zm13.863 2.9v10.963H11.089V22.325a11.659 11.659 0 0 1-3.961.688 11.622 11.622 0 0 1-1.584-.135v17.6A3.89 3.89 0 0 0 9.42 44.36h31.058a3.9 3.9 0 0 0 3.882-3.882v-17.6a11.929 11.929 0 0 1-1.584.135 11.536 11.536 0 0 1-3.961-.707zm10.869-9.832L44.911 0h-11.4l2.188 14.534c.426 2.745 3.429 4.875 7.079 4.875 3.937 0 7.129-2.485 7.129-5.545a4.465 4.465 0 0 0-.224-1.387z" />
	</svg>
	<svg width="45" height="41" id="icon-office" y="2110">
		<path d="M22.5 9V0H0v40.5h45V9zM9 36H4.5v-4.5H9zm0-9H4.5v-4.5H9zm0-9H4.5v-4.5H9zm0-9H4.5V4.5H9zm9 27h-4.5v-4.5H18zm0-9h-4.5v-4.5H18zm0-9h-4.5v-4.5H18zm0-9h-4.5V4.5H18zm22.5 27h-18v-4.5H27V27h-4.5v-4.5H27V18h-4.5v-4.5h18zM36 18h-4.5v4.5H36zm0 9h-4.5v4.5H36z" />
	</svg>
	<svg width="47" height="61" id="icon-popup" y="2160">
		<path d="M14.666 4.511a8.972 8.972 0 0 1 2.536-2.78 8.193 8.193 0 0 1 8.386-1 10.5 10.5 0 0 1 3.782 3.057c.3.352.576.719.837 1.1a.563.563 0 0 0 .566.277 2.24 2.24 0 0 1 2.236 2.253 2.159 2.159 0 0 1-2.256 2.111 2.213 2.213 0 0 1-2.015-2.827.414.414 0 0 0-.179-.533 9.475 9.475 0 0 0-3.756-1.909 3.687 3.687 0 0 0-4.422 2.632 4 4 0 0 0-.013 1.542 6.672 6.672 0 0 0 1.561 3c.221-.2.426-.4.642-.583.294-.25.5-.189.547.188a1.9 1.9 0 0 0 .685 1.2 9.3 9.3 0 0 1 .734.75.78.78 0 0 1 .191.385.947.947 0 0 0 .491.857.64.64 0 0 1 .14.89 17.105 17.105 0 0 1-1.244 1.944 24.9 24.9 0 0 1-3.514 3.566c-.1.085-.193.173-.385.345a3.265 3.265 0 0 0 .907.223 7.065 7.065 0 0 1 5.78 2.532 9.131 9.131 0 0 1 2.333 3.922c.016.054.042.106.091.224a11.968 11.968 0 0 1 2.753-3.454c-.251-.544-.508-1.05-.718-1.575a2.43 2.43 0 0 1-.121-.742.346.346 0 0 1 .13-.281c.472-.217.6-.727.937-1.061.36-.36.537-.356.782.1l.09.181c.334-.33.675-.622.963-.959a1.32 1.32 0 0 0 .264-1.455 1.377 1.377 0 0 0-1.281-.872 6.523 6.523 0 0 0-1.533.21 1.135 1.135 0 0 0-.745.644 1.1 1.1 0 0 1-1.523.523 1.153 1.153 0 0 1-.528-1.43 1.091 1.091 0 0 1 1.436-.682.445.445 0 0 0 .486-.094 5.367 5.367 0 0 1 2.324-1.142 4.073 4.073 0 0 1 4.278 2.154c.2.369.336.77.487 1.121a7.6 7.6 0 0 1 1.192.124 3.038 3.038 0 0 1 2.11 2.8 5.344 5.344 0 0 1-.129 1.218.449.449 0 0 0 .13.495 4.189 4.189 0 0 1 1.389 3.829 3.812 3.812 0 0 1-1.907 2.783 2.629 2.629 0 0 0-1.107 1.095 1.066 1.066 0 0 1-1.459.515 1.145 1.145 0 0 1-.581-1.38 1.124 1.124 0 0 1 1.344-.771.44.44 0 0 0 .5-.166 3.7 3.7 0 0 0 .9-1.551 1.525 1.525 0 0 0-1.906-1.884 8.842 8.842 0 0 0-.96.375c.072.112.12.18.16.252.142.251.068.418-.224.458a.91.91 0 0 0-.785.492c-.01.021-.027.048-.046.054-.078.024-.159.036-.237.06-.5.154-1.015.5-1.482-.069q-.945-1.145-1.887-2.293c-.067-.082-.124-.173-.206-.289a9.9 9.9 0 0 0-2.044 2.454 8.213 8.213 0 0 0-1.291 5.119 12.312 12.312 0 0 0 .454 1.734l.134.007.244-.284a4.677 4.677 0 0 1 5.227-1.287 1.493 1.493 0 0 1 .52 2.639 4.829 4.829 0 0 1-3.987 1.473 9.4 9.4 0 0 1-1.691-.562 5.474 5.474 0 0 0 .318 2.632c.943-.2 1.835-.419 2.74-.556a4.9 4.9 0 0 1 1.516.015 1.216 1.216 0 0 1 .824 2.1 1.965 1.965 0 0 1-.877.662 4.7 4.7 0 0 1-3.441-.07 7.193 7.193 0 0 1-1.053-.684 1.745 1.745 0 0 0-.493 1.046c-.059.333-.068.674-.111 1.01-.029.225.078.288.281.321a2.441 2.441 0 0 0 1.369-.173 5.006 5.006 0 0 1 3.271-.258 1.3 1.3 0 0 1 1.057 1.268.4.4 0 0 0 .239.273c.691.222 1.38.459 2.087.619a16.028 16.028 0 0 1 4 1.86c1.64.886 3.269 1.794 4.9 2.693.053.029.126.048.153.094a4.111 4.111 0 0 1 .178.378c-.136.038-.287.135-.4.1-.759-.2-1.51-.438-2.265-.66-.542-.16-1.085-.317-1.711-.5l1.107 2.311c.037.076.074.153.108.23.166.38.081.522-.326.526-.581.005-1.161 0-1.782 0-.131.688-.262 1.361-.387 2.034q-.658 3.534-1.309 7.069a.381.381 0 0 1-.439.366q-5.38-.007-10.759-.007a.756.756 0 0 1-.342-.09c-2.473-1.328-4.941-2.665-7.417-3.988a1.067 1.067 0 0 1-.6-.843q-.544-3.627-1.107-7.251a.6.6 0 0 0-.289-.362c-1.368-.753-2.746-1.488-4.116-2.238a1.868 1.868 0 0 1-.349-.331 1.884 1.884 0 0 1 .363-.36c.9-.5 1.807-.984 2.712-1.475.094-.051.182-.112.333-.2-.816-.178-1.57-.344-2.324-.507-.721-.156-1.447-.3-2.163-.472-.142-.035-.353-.2-.358-.306-.012-.257.228-.252.429-.252 4.338 0 8.675-.008 13.013.007.635 0 1.269.112 1.915.173.021-.3.035-.61.066-.921a3.355 3.355 0 0 1 .808-1.871.447.447 0 0 0 .1-.366 7.078 7.078 0 0 1-.375-3.538 1.332 1.332 0 0 0-.158-.788 6.3 6.3 0 0 1-.6-5.016 3.55 3.55 0 0 0-.113-2.155 9.782 9.782 0 0 0-3.33-4.658 5.366 5.366 0 0 0-3.367-1.27 1.179 1.179 0 0 0-.153.016 12.707 12.707 0 0 1 .4 1.678 4.312 4.312 0 0 1-1.668 4.075 1.44 1.44 0 0 1-2.381-.68 4.521 4.521 0 0 1 1.618-5.479.886.886 0 0 1 .132-.06l-.082-.109a3 3 0 0 0-.326.2 18.447 18.447 0 0 1-4.336 2.759 3.578 3.578 0 0 1-.834.234c-.468.067-.708-.133-.835-.593a.366.366 0 0 0-.224-.219 7.019 7.019 0 0 1-2.409-1.379.3.3 0 0 1 .01-.525c.307-.244.648-.443.991-.672a11.736 11.736 0 0 0-2.909-2.479 3.3 3.3 0 0 0-4.81 2.855 6.706 6.706 0 0 0 .6 2.963c.253.588.561 1.153.845 1.728a.7.7 0 0 0 .636.4 2.049 2.049 0 0 1 1.9 1.437 2.187 2.187 0 0 1-.622 2.385 2.248 2.248 0 0 1-2.453.275 2.166 2.166 0 0 1-1.009-2.788.385.385 0 0 0-.116-.518 12.416 12.416 0 0 1-2.985-4.076 7.974 7.974 0 0 1 1-8.113 8.917 8.917 0 0 1 4.458-3.294.945.945 0 0 0 .139-.062 17.305 17.305 0 0 1-.213-2.342 5.194 5.194 0 0 1 2.757-4.42 7.3 7.3 0 0 1 5.836-.81zm3.877 20.69c.045.372.072.747.141 1.114s.155.805.6.917.713-.242.951-.541a3.865 3.865 0 0 0 .665-3.536c-.081-.323-.2-.705-.571-.711a1.282 1.282 0 0 0-.812.366 3.091 3.091 0 0 0-.974 2.391zm11.925 10.151a2.613 2.613 0 0 0 2.363.805 4.966 4.966 0 0 0 2.252-1.186.466.466 0 0 0 .134-.34c-.046-.742-.217-.921-.948-1.029a3.71 3.71 0 0 0-.542-.048 3.765 3.765 0 0 0-3.259 1.799zm.565 4.618a1.906 1.906 0 0 0 .157.165 2.227 2.227 0 0 0 .239.164 3.752 3.752 0 0 0 2.921.214c.249-.065.452-.167.377-.5-.071-.318-.11-.633-.558-.583-.744.083-1.49.142-2.231.248a5.661 5.661 0 0 0-.906.292zm1.9 3.445l1.61.289.019-.115c-.478-.453-1.069-.191-1.627-.174z" />
	</svg>
	<svg width="49" height="49" id="icon-retail-shop" y="2225">
		<path d="M35.436 43.616a5.452 5.452 0 1 0 5.452-5.452 5.451 5.451 0 0 0-5.452 5.452zm-27.26 0a5.452 5.452 0 1 0 5.452-5.452 5.453 5.453 0 0 0-5.452 5.452zm9.669-13.162l30.172-8.619a1.536 1.536 0 0 0 1.05-1.39V5.452H10.899V1.09A1.1 1.1 0 0 0 9.815 0H1.087A1.093 1.093 0 0 0-.001 1.09v4.362h5.453l5.207 24.417.245 2.571v4.495a1.1 1.1 0 0 0 1.095 1.089h35.979a1.1 1.1 0 0 0 1.09-1.09v-4.222H18.406c-3.135 0-3.2-1.5-.559-2.257z" />
	</svg>
	<svg width="49" height="49" id="icon-shareshop" y="2275">
		<g data-name="Group 102">
			<path data-name="Subtraction 2" d="M13.63 49.07a5.459 5.459 0 01-5.453-5.452 5.459 5.459 0 015.453-5.453 5.459 5.459 0 015.453 5.453 5.459 5.459 0 01-5.453 5.452zm15.262-11.043h-16.89a1.093 1.093 0 01-1.092-1.092v-4.5l-.244-2.57L5.458 5.448H.002V1.087A1.092 1.092 0 011.09-.005h8.729a1.1 1.1 0 011.088 1.092v4.361h17.985v21.85l-11.044 3.154c-1.217.347-1.958.9-1.888 1.4.074.528 1.012.857 2.448.857h10.484v5.313z"/>
			<g data-name="Subtraction 1" fill="none">
				<path d="M40.891 49.068a5.457 5.457 0 01-5.453-5.448 5.423 5.423 0 011.6-3.858 5.42 5.42 0 013.857-1.595 5.459 5.459 0 015.453 5.453 5.457 5.457 0 01-5.457 5.448zm7.089-11.043H28.891v-5.312h20.18v4.223a1.092 1.092 0 01-1.093 1.089zM28.891 27.3V5.454h20.18v14.994a1.535 1.535 0 01-1.053 1.389L28.891 27.3z"/>
				<path fill="#000" d="M40.89 48.068a4.455 4.455 0 004.452-4.449 4.458 4.458 0 00-4.453-4.453c-1.191 0-2.31.462-3.15 1.302a4.427 4.427 0 00-1.302 3.151 4.455 4.455 0 004.452 4.449m7.09-11.043c.05 0 .092-.041.092-.09v-3.222H29.89v3.312h18.087m-18.086-11.05l17.85-5.1c.15-.043.329-.275.329-.427V6.453H29.89v19.522M40.89 49.068a5.457 5.457 0 01-5.452-5.449c0-1.458.566-2.829 1.595-3.858a5.42 5.42 0 013.857-1.595 5.46 5.46 0 015.453 5.453 5.457 5.457 0 01-5.453 5.449zm7.09-11.043H28.891v-5.312H49.07v4.223c0 .6-.49 1.089-1.093 1.089zM28.892 27.3h-.001V5.452H49.07v14.995c0 .598-.473 1.221-1.053 1.388L28.893 27.3z"/>
			</g>
		</g>
	</svg>
	<svg width="59" height="45" id="icon-showroom" y="2330">
		<path data-name="Path 14" d="M48.322 29.592v9.632h-9.008v5.627h-5v-5.8a47.326 47.326 0 0 0-6.865.847 57.32 57.32 0 0 0-7.76 2.944 9.678 9.678 0 0 1-9.821-1.031c-5.194-3.5-7.963-8.609-9.309-14.567a18.4 18.4 0 0 1 .53-10.814 9.326 9.326 0 0 1 5.65-5.717c4.6-1.732 9.141-3.6 13.756-5.277a11.379 11.379 0 0 1 3.984-.565 14.391 14.391 0 0 0 5.931-1.18c2.309-.975 4.719-1.723 6.994-2.769 3.931-1.808 7.317-.835 10.481 1.724a5.409 5.409 0 0 1 1.145 1.067 2.075 2.075 0 0 0 3.144.694 2.476 2.476 0 0 1 3.042.483 11.064 11.064 0 0 1 3.743 9.853 2.5 2.5 0 0 1-2.023 2.327c-1.425.319-1.651 1.175-1.8 2.551a21.7 21.7 0 0 1-1.567 5.99c-.919 2.201-2.965 3.305-5.247 3.981zm-46.2-7.677c.2 5.32 1.381 9.546 4.085 13.142a19.909 19.909 0 0 0 5.165 4.9c3.53 2.207 6.966.775 8.394-3.135a9.841 9.841 0 0 0 .58-2.427 21.217 21.217 0 0 0-6.167-17.279 11.673 11.673 0 0 0-3.451-2.387 5.235 5.235 0 0 0-7.569 2.973 26.063 26.063 0 0 0-1.041 4.213zm47.755-9.171v-.591c-.567-.118-1.219-.479-1.686-.315-2.7.952-5.375 1.995-8.021 3.1-.4.168-.608.805-.905 1.226.52.168 1.135.6 1.544.46 2.7-.954 5.365-2.018 8.025-3.086a4.956 4.956 0 0 0 1.039-.794zm.781 5.033c-.817-.32-1.361-.756-1.7-.633q-4.338 1.56-8.6 3.333c-.317.131-.409.8-.606 1.222.434.155.954.549 1.288.428 2.792-1.01 5.557-2.1 8.311-3.21.367-.149.639-.548 1.303-1.14zm-4.126-9.333q0-.266.006-.532c-.483-.167-1.058-.594-1.433-.46a182.554 182.554 0 0 0-8.453 3.273c-.339.14-.473.775-.7 1.181.469.171 1.031.6 1.393.472 2.746-.982 5.459-2.06 8.167-3.147a4.746 4.746 0 0 0 1.016-.787zM42.47 4.433l-.015-.6c-.565-.116-1.216-.474-1.682-.309q-4.039 1.432-7.987 3.11c-.4.168-.552.9-.819 1.369.5.112 1.072.444 1.477.3 2.691-.962 5.35-2.012 8-3.074a4.672 4.672 0 0 0 1.022-.796zm7.923 19.293l-.022-.611c-.559-.109-1.2-.453-1.663-.289a155.974 155.974 0 0 0-8 3.086c-.4.165-.591.812-.879 1.236.52.164 1.134.594 1.544.449 2.693-.952 5.347-2.015 8-3.081a4.672 4.672 0 0 0 1.016-.792zm-7.187 7.824l-5.315 2.243.189.378h5.125z" />
	</svg>
	<svg width="41" height="37" id="icon-storage" y="2380">
		<path d="M39.823.001H1.373A1.37 1.37 0 0 0 0 1.374v5.493h41.2V1.374A1.373 1.373 0 0 0 39.823.001zM2.289 33.418a3.211 3.211 0 0 0 3.2 3.2H35.7a3.216 3.216 0 0 0 3.2-3.2V9.156H2.289v24.262zm11.444-19.684h13.733v4.578H13.733v-4.578z" />
	</svg>
	<svg width="54" height="51" id="icon-market" y="2420">
		<path d="M52.2 18H37.176l-5.436 5.436a7.2 7.2 0 0 1-12.292-5.089c0-.116.03-.231.034-.349H1.8a1.8 1.8 0 0 0-1.8 1.8v7.2h54V19.8a1.8 1.8 0 0 0-1.8-1.8zm-22.9 3L44.469 5.831a1.8 1.8 0 0 0 .006-2.546l-2.76-2.76a1.81 1.81 0 0 0-2.55 0L24 15.694a3.751 3.751 0 1 0 5.3 5.3zM8.469 48.814A3.012 3.012 0 0 0 11.25 51h31.5a3.014 3.014 0 0 0 2.781-2.186L50.1 30H3.9l4.569 18.814z"/>
	</svg>
	<svg width="22" height="22" id="icon-dashboard" y="2475">
		<path d="M0 12.094h9.675V0H0zm0 9.676h9.675v-7.257H0zm12.094 0h9.676V9.675h-9.676zm0-21.77v7.257h9.676V0z" fill="#ffffff" />
	</svg>
	<svg width="25" height="25" id="icon-entity" y="2505">
		<path d="M0 25h12.5V0H0zM7.813 3.125h3.125V6.25H7.813zm0 6.25h3.125V12.5H7.813zm0 6.25h3.125v3.125H7.813zm-6.25-12.5h3.125V6.25H1.563zm0 6.25h3.125V12.5H1.563zm0 6.25h3.125v3.125H1.563zm12.5-7.812H25v1.562H14.063zm0 17.188h3.125V18.75h4.688V25H25V10.938H14.063z" fill="#fff" />
	</svg>
	<svg width="26" height="23" id="icon-space" y="2535">
		<path d="M7.334 7.517L8.467.001h-5.89L.116 6.444A2.256 2.256 0 0 0 0 7.16c0 1.58 1.646 2.863 3.681 2.863 1.875 0 3.426-1.093 3.653-2.505zm5.55 2.505c2.033 0 3.681-1.283 3.681-2.863 0-.059 0-.117-.007-.174L15.83.001H9.94L9.21 6.98c0 .059-.005.117-.005.179 0 1.58 1.648 2.863 3.681 2.863zm7.158 1.5v5.66H5.726v-5.653a6.02 6.02 0 0 1-2.045.355 6 6 0 0 1-.818-.07v9.087a2.009 2.009 0 0 0 2 2h16.036a2.011 2.011 0 0 0 2-2v-9.086a6.159 6.159 0 0 1-.818.07 5.957 5.957 0 0 1-2.045-.365zm5.612-5.077L23.19.001h-5.891l1.131 7.5c.22 1.417 1.771 2.517 3.655 2.517 2.033 0 3.681-1.283 3.681-2.863a2.306 2.306 0 0 0-.111-.711z" fill="#fff" />
	</svg>
	<svg width="25" height="25" id="icon-entity-active" y="2565">
		<path d="M0 25h12.5V0H0zM7.813 3.125h3.125V6.25H7.813zm0 6.25h3.125V12.5H7.813zm0 6.25h3.125v3.125H7.813zm-6.25-12.5h3.125V6.25H1.563zm0 6.25h3.125V12.5H1.563zm0 6.25h3.125v3.125H1.563zm12.5-7.812H25v1.562H14.063zm0 17.188h3.125V18.75h4.688V25H25V10.938H14.063z" fill="#1FC38E" />
	</svg>
	<svg width="26" height="23" id="icon-space-active" y="2595">
		<path d="M7.334 7.517L8.467.001h-5.89L.116 6.444A2.256 2.256 0 0 0 0 7.16c0 1.58 1.646 2.863 3.681 2.863 1.875 0 3.426-1.093 3.653-2.505zm5.55 2.505c2.033 0 3.681-1.283 3.681-2.863 0-.059 0-.117-.007-.174L15.83.001H9.94L9.21 6.98c0 .059-.005.117-.005.179 0 1.58 1.648 2.863 3.681 2.863zm7.158 1.5v5.66H5.726v-5.653a6.02 6.02 0 0 1-2.045.355 6 6 0 0 1-.818-.07v9.087a2.009 2.009 0 0 0 2 2h16.036a2.011 2.011 0 0 0 2-2v-9.086a6.159 6.159 0 0 1-.818.07 5.957 5.957 0 0 1-2.045-.365zm5.612-5.077L23.19.001h-5.891l1.131 7.5c.22 1.417 1.771 2.517 3.655 2.517 2.033 0 3.681-1.283 3.681-2.863a2.306 2.306 0 0 0-.111-.711z" fill="#1FC38E" />
	</svg>
	<svg width="9" height="9" id="icon-paid-primary" y="2625">
		<g transform="translate(-1481 -674)">
			<circle data-name="Ellipse 57" cx="4.5" cy="4.5" r="4.5" transform="translate(1481 674)" fill="#1fc38e" />
			<path d="M1484.709 679.736l-.994-.994-.338.336 1.332 1.333 2.858-2.86-.334-.336z" fill="#fff" stroke="#fff" />
		</g>
	</svg>
	<svg width="9" height="9" id="icon-paid-white" y="2635">
		<g transform="translate(-1510 -767)">
			<circle data-name="Ellipse 62" cx="4.5" cy="4.5" r="4.5" transform="translate(1510 767)" fill="#fff" />
			<path d="M1513.709 772.736l-.994-.994-.338.336 1.332 1.333 2.858-2.86-.334-.336z" fill="#1fc38e" stroke="#1fc38e" />
		</g>
	</svg>
	<svg width="22" height="15" id="icon-visibility-white" y="2650">
		<path d="M10.931 0A11.753 11.753 0 0 0 0 7.453a11.743 11.743 0 0 0 21.862 0A11.753 11.753 0 0 0 10.931 0zm0 12.422A4.969 4.969 0 1 1 15.9 7.453a4.971 4.971 0 0 1-4.969 4.969zm0-7.95a2.981 2.981 0 1 0 2.981 2.981 2.977 2.977 0 0 0-2.981-2.981z" fill="#ffffff"  />
	</svg>
	<svg width="15" height="15" viewBox="0 0 459 459" id="icon-delete-black" y="2670">
		<path d="M76.5 408c0 28.05 22.95 51 51 51h204c28.05 0 51-22.95 51-51V102h-306v306zM408 25.5h-89.25L293.25 0h-127.5l-25.5 25.5H51v51h357v-51z" />
	</svg>
	<svg width="15" height="15" viewBox="0 0 383.947 383.947" id="icon-delete-white" y="2690">
		<path d="M0 303.947v80h80l236.053-236.054-80-80zM377.707 56.053L327.893 6.24c-8.32-8.32-21.867-8.32-30.187 0l-39.04 39.04 80 80 39.04-39.04c8.321-8.32 8.321-21.867.001-30.187z" fill="#fff" />
	</svg>
	<svg width="15" height="15" viewBox="0 0 383.947 383.947" id="icon-edit-black" y="2710">
		<path d="M0 303.947v80h80l236.053-236.054-80-80zM377.707 56.053L327.893 6.24c-8.32-8.32-21.867-8.32-30.187 0l-39.04 39.04 80 80 39.04-39.04c8.321-8.32 8.321-21.867.001-30.187z" />
	</svg>
	<svg width="15" height="15" viewBox="0 0 459 459" id="icon-edit-white" y="2730">
		<path d="M76.5 408c0 28.05 22.95 51 51 51h204c28.05 0 51-22.95 51-51V102h-306v306zM408 25.5h-89.25L293.25 0h-127.5l-25.5 25.5H51v51h357v-51z" fill="#fff" />
	</svg>
	<svg width="22" height="15" id="icon-visibility-active" y="2750">
		<path d="M10.931 0A11.753 11.753 0 0 0 0 7.453a11.743 11.743 0 0 0 21.862 0A11.753 11.753 0 0 0 10.931 0zm0 12.422A4.969 4.969 0 1 1 15.9 7.453a4.971 4.971 0 0 1-4.969 4.969zm0-7.95a2.981 2.981 0 1 0 2.981 2.981 2.977 2.977 0 0 0-2.981-2.981z" fill="#1fc38e"  />
	</svg>
	<svg width="20" height="20" viewBox="0 0 47.001 47.001" id="icon-bank" y="2767">
		<path d="M44.845 42.718H2.136a2.136 2.136 0 1 0 0 4.272h42.708a2.135 2.135 0 1 0 .001-4.272zM4.805 37.165a2.136 2.136 0 1 0 0 4.273h37.37a2.136 2.136 0 0 0 0-4.273h-.533v-19.22h.533a1.066 1.066 0 1 0 0-2.134H4.805a1.067 1.067 0 1 0 0 2.134h.534v19.219h-.534zm32.565-19.22v19.219h-6.406V17.945h6.406zm-10.678 0v19.219h-6.406V17.945h6.406zm-17.083 0h6.406v19.219H9.609V17.945zM2.136 13.891h42.729a2.135 2.135 0 0 0 .693-4.157L24.368.199a2.14 2.14 0 0 0-1.752 0L1.26 9.808a2.135 2.135 0 0 0 .876 4.083z" fill="#ffffff"/>
	</svg>
	<svg width="20" height="20" viewBox="0 0 47.001 47.001" id="icon-bank-active" y="2790">
		<path d="M44.845 42.718H2.136a2.136 2.136 0 1 0 0 4.272h42.708a2.135 2.135 0 1 0 .001-4.272zM4.805 37.165a2.136 2.136 0 1 0 0 4.273h37.37a2.136 2.136 0 0 0 0-4.273h-.533v-19.22h.533a1.066 1.066 0 1 0 0-2.134H4.805a1.067 1.067 0 1 0 0 2.134h.534v19.219h-.534zm32.565-19.22v19.219h-6.406V17.945h6.406zm-10.678 0v19.219h-6.406V17.945h6.406zm-17.083 0h6.406v19.219H9.609V17.945zM2.136 13.891h42.729a2.135 2.135 0 0 0 .693-4.157L24.368.199a2.14 2.14 0 0 0-1.752 0L1.26 9.808a2.135 2.135 0 0 0 .876 4.083z" fill="#1fc38e"/>
	</svg>
	<svg width="24" height="24" id="icon-circle-date" y="2815">
		<g data-name="Group 134">
			<circle data-name="Ellipse 45" cx="12" cy="12" r="12" />
		</g>
		<path d="M15.889 8.111h-.556v1.111h-1.666V8.111h-3.334v1.111H8.667V8.111h-.556A1.114 1.114 0 0 0 7 9.222v6.667A1.114 1.114 0 0 0 8.111 17h7.778A1.114 1.114 0 0 0 17 15.889V9.222a1.114 1.114 0 0 0-1.111-1.111zm0 7.778H8.111v-4.445h7.778zM10.056 7H8.944v1.944h1.112zm5 0h-1.112v1.944h1.112z" fill="#fff" />
	</svg>
	<svg width="24" height="24" id="icon-circle-edit" y="2840">
		<g data-name="Group 139">
			<g data-name="Group 134">
				<circle data-name="Ellipse 45" cx="12" cy="12" r="12" />
			</g>
			<g data-name="Group 138">
				<g data-name="Group 135">
					<g data-name="Group 137" fill="#fff">
						<path data-name="Path 26" d="M7 14.559v1.832h1.832l5.4-5.4L12.4 9.154z" />
						<path data-name="Path 27" d="M16.247 8.283l-1.14-1.14a.489.489 0 0 0-.691 0l-.894.894 1.832 1.832.894-.894a.489.489 0 0 0-.001-.692z" />
					</g>
				</g>
			</g>
		</g>
	</svg>
	<svg height="24" width="24" viewBox="0 0 480 480" id="icon-download" y="2870">
		<path fill="#fff" d="M378.528 214.688l-21.088-24c-5.824-6.624-15.904-7.264-22.56-1.472L272 244.32V16c0-8.832-7.168-16-16-16h-32c-8.832 0-16 7.168-16 16v228.32l-62.88-55.104c-6.624-5.792-16.704-5.152-22.56 1.472l-21.088 23.968c-5.856 6.656-5.184 16.8 1.472 22.624l126.528 110.752a16.017 16.017 0 0021.088 0L377.056 237.28c6.656-5.824 7.328-15.968 1.472-22.592zM416 416H64c-8.832 0-16 7.168-16 16v32c0 8.832 7.168 16 16 16h352c8.832 0 16-7.168 16-16v-32c0-8.832-7.168-16-16-16z"/>
	</svg>
	<svg height="24" width="24" viewBox="0 0 480 480" id="icon-download-active" y="2900">
		<path fill="#1FC38E" d="M378.528 214.688l-21.088-24c-5.824-6.624-15.904-7.264-22.56-1.472L272 244.32V16c0-8.832-7.168-16-16-16h-32c-8.832 0-16 7.168-16 16v228.32l-62.88-55.104c-6.624-5.792-16.704-5.152-22.56 1.472l-21.088 23.968c-5.856 6.656-5.184 16.8 1.472 22.624l126.528 110.752a16.017 16.017 0 0021.088 0L377.056 237.28c6.656-5.824 7.328-15.968 1.472-22.592zM416 416H64c-8.832 0-16 7.168-16 16v32c0 8.832 7.168 16 16 16h352c8.832 0 16-7.168 16-16v-32c0-8.832-7.168-16-16-16z"/>
	</svg>
	<svg height="26" width="27" viewBox="0 0 512 512" id="icon-twitter-mountain" y="2926">
		<path fill="#1FC38E" d="M256 0C114.637 0 0 114.637 0 256s114.637 256 256 256 256-114.637 256-256S397.363 0 256 0zm116.887 199.602c.113 2.52.168 5.05.168 7.593 0 77.645-59.102 167.18-167.184 167.184h.004-.004c-33.184 0-64.062-9.727-90.066-26.395 4.597.543 9.277.813 14.015.813 27.532 0 52.868-9.39 72.98-25.152-25.722-.477-47.41-17.465-54.894-40.813a58.481 58.481 0 0011.043 1.063c5.363 0 10.559-.723 15.496-2.07-26.886-5.384-47.14-29.145-47.14-57.598 0-.266 0-.504.007-.75a58.354 58.354 0 0026.614 7.347c-15.778-10.527-26.149-28.523-26.149-48.91a58.597 58.597 0 017.957-29.535c28.977 35.555 72.282 58.937 121.118 61.394a58.708 58.708 0 01-1.528-13.398c0-32.437 26.317-58.754 58.766-58.754 16.902 0 32.168 7.145 42.89 18.567a117.855 117.855 0 0037.313-14.262c-4.395 13.715-13.707 25.222-25.84 32.5 11.887-1.422 23.215-4.574 33.742-9.254a119.412 119.412 0 01-29.308 30.43zm0 0"/>
	</svg>
	<svg width="32" height="30" id="icon-map" viewBox="0 0 32 30" y="2952">
		<path fill="#000000" d="M31.116 4.97l-9.6-4.8a1.6 1.6 0 00-1.432 0l-9.008 4.5-8.975-2.986a1.6 1.6 0 00-2.1 1.519v20.8a1.6 1.6 0 00.885 1.43l9.6 4.8a1.609 1.609 0 00.715.17 1.577 1.577 0 00.715-.17l9.008-4.5 8.97 2.99a1.612 1.612 0 001.442-.222 1.6 1.6 0 00.664-1.3V6.402a1.592 1.592 0 00-.883-1.43zM12.801 7.391l6.4-3.2v18.821l-6.4 3.2V7.391zm-9.6-1.97l6.4 2.133v18.658l-6.4-3.2V5.421zm25.6 19.563l-6.4-2.134V4.191l6.4 3.2v17.594z"/>
	</svg>
	<svg height="32" viewBox="0 0 512 512" width="32" id="icon-linkedin" y="2984">
		<path fill="#ffffff" d="M256 0C114.637 0 0 114.637 0 256s114.637 256 256 256 256-114.637 256-256S397.363 0 256 0zm-74.39 387h-62.348V199.426h62.347zm-31.173-213.188h-.406c-20.922 0-34.453-14.402-34.453-32.402 0-18.406 13.945-32.41 35.274-32.41 21.328 0 34.453 14.004 34.859 32.41 0 18-13.531 32.403-35.274 32.403zM406.423 387h-62.34V286.652c0-25.218-9.027-42.418-31.586-42.418-17.223 0-27.48 11.602-31.988 22.801-1.649 4.008-2.051 9.61-2.051 15.215V387h-62.344s.817-169.977 0-187.574h62.344v26.558c8.285-12.78 23.11-30.96 56.188-30.96 41.02 0 71.777 26.808 71.777 84.421zm0 0"/>
	</svg>
	<svg width="51" height="47" id="icon-pictures-grey" y="3018">
		<path d="M41.295 43.677l-4.073-1.118-.009-11.266 3.9 1.1 5.617-20.969-28.459-7.627-1.871 6.994h-3.21L16.078 0l34.448 9.229-9.231 34.448zm-5.534 3.745H0V11.758h35.761zm-3.1-32.564H3.1v21.709h29.56zm-20.478 15.48l3.544-5.731 3.544 3.572 4.872-7.337 5.1 12.626H6.645l2.879-5.759zm-2.119-6.064a2.325 2.325 0 1 1 2.326-2.322 2.325 2.325 0 0 1-2.326 2.321z" fill="#b7b7b7" />
	</svg>
	<svg width="22" height="22" id="icon-highlight-red" y="3068">
		<path d="M13.7 6.531L10.885 9.35 8.066 6.531 6.531 8.066l2.819 2.819L6.531 13.7l1.535 1.535 2.819-2.819 2.815 2.823 1.539-1.539-2.819-2.815 2.819-2.819zM10.885 0A10.885 10.885 0 1 0 21.77 10.885 10.875 10.875 0 0 0 10.885 0zm0 19.593a8.708 8.708 0 1 1 8.708-8.708 8.719 8.719 0 0 1-8.708 8.708z" fill="#dc3545" />
	</svg>
	<svg width="34" height="34" id="icon-date-circle" y="3092">
		<g transform="translate(-1162 -3265)">
			<circle data-name="Ellipse 45" cx="17" cy="17" r="17" transform="translate(1162 3265)" />
			<path data-name="001-calendar" d="M1185.75 3275.25h-.75v-1.5a.75.75 0 00-.75-.75h-.75a.75.75 0 00-.75.75v1.5h-7.5v-1.5a.75.75 0 00-.75-.75h-.749a.75.75 0 00-.751.75v1.5h-.75a2.252 2.252 0 00-2.25 2.25v11.25a2.252 2.252 0 002.25 2.25h13.5a2.252 2.252 0 002.25-2.25v-11.25a2.252 2.252 0 00-2.25-2.25zm.75 13.5a.751.751 0 01-.75.75h-13.5a.751.751 0 01-.75-.75v-8.223h15zm0 0" fill="#fff" />
		</g>
	</svg>
	<svg width="34" height="34" id="icon-edit-circle" y="3128">
		<g transform="translate(-1222 -2491)">
			<circle data-name="Ellipse 63" cx="17" cy="17" r="17" transform="translate(1222 2491)"/>
			<path d="M1236.038 2515.501l-4.536-4.539 10.972-10.972 4.538 4.536zm-4.96-3.74l4.161 4.161-6.239 2.079zm17.327-8.624l-.787.787-4.542-4.542.787-.787a2.029 2.029 0 012.87 0l1.672 1.672a2.04 2.04 0 010 2.87zm0 0" fill="#fff"/>
		</g>
	</svg>
	<svg height="22" viewBox="0 0 512 512" width="22" id="icon-home" y="3164">
		<path fill="#ffffff" d="M498.195 222.695l-.035-.035L289.305 13.813C280.402 4.905 268.566 0 255.977 0c-12.59 0-24.426 4.902-33.332 13.809L13.898 222.55c-.07.07-.14.144-.21.215-18.282 18.386-18.25 48.218.09 66.558 8.378 8.383 19.445 13.238 31.277 13.746.48.047.965.07 1.453.07h8.324v153.7C54.832 487.254 79.578 512 110 512h81.71c8.282 0 15-6.715 15-15V376.5c0-13.879 11.29-25.168 25.169-25.168h48.195c13.88 0 25.168 11.29 25.168 25.168V497c0 8.285 6.715 15 15 15h81.711c30.422 0 55.168-24.746 55.168-55.16v-153.7h7.719c12.586 0 24.422-4.902 33.332-13.808 18.36-18.371 18.367-48.254.023-66.637zm0 0"/>
	</svg>
	<svg height="22" viewBox="0 0 512 512" width="22" id="icon-home-active" y="3188">
		<path fill="#1fc38e" d="M498.195 222.695l-.035-.035L289.305 13.813C280.402 4.905 268.566 0 255.977 0c-12.59 0-24.426 4.902-33.332 13.809L13.898 222.55c-.07.07-.14.144-.21.215-18.282 18.386-18.25 48.218.09 66.558 8.378 8.383 19.445 13.238 31.277 13.746.48.047.965.07 1.453.07h8.324v153.7C54.832 487.254 79.578 512 110 512h81.71c8.282 0 15-6.715 15-15V376.5c0-13.879 11.29-25.168 25.169-25.168h48.195c13.88 0 25.168 11.29 25.168 25.168V497c0 8.285 6.715 15 15 15h81.711c30.422 0 55.168-24.746 55.168-55.16v-153.7h7.719c12.586 0 24.422-4.902 33.332-13.808 18.36-18.371 18.367-48.254.023-66.637zm0 0"/>
	</svg>
	<svg width="34" height="27" id="icon-add-space" y="3215">
		<g>
			<path fill="#fff" d="M7.334 11.898l1.133-7.516h-5.89L.116 10.825a2.256 2.256 0 00-.116.716c0 1.58 1.646 2.863 3.681 2.863 1.875 0 3.426-1.093 3.653-2.505zm5.55 2.505c2.033 0 3.681-1.283 3.681-2.863 0-.059 0-.117-.007-.174l-.728-6.984H9.94l-.73 6.979c0 .059-.005.117-.005.179 0 1.58 1.648 2.863 3.681 2.863zm7.158 1.5v5.66H5.726V15.91a6.02 6.02 0 01-2.045.355 6 6 0 01-.818-.07v9.087a2.009 2.009 0 002 2h16.036a2.011 2.011 0 002-2v-9.086a6.159 6.159 0 01-.818.07 5.957 5.957 0 01-2.045-.365zm5.612-5.077L23.19 4.382h-5.891l1.131 7.5c.22 1.417 1.771 2.517 3.655 2.517 2.033 0 3.681-1.283 3.681-2.863a2.306 2.306 0 00-.111-.711z"/>
			<g stroke-linejoin="round">
				<path d="M25.3 13.144V9.157h-3.987v-3.17H25.3V2h3.17v3.987h3.987v3.17H28.47v3.987H25.3z"  fill="#1fc38e"/>
				<path d="M27.97 2.5H25.8v3.987h-3.987v2.17H25.8v3.987h2.17V8.657h3.987v-2.17H27.97V2.5m.707-.707a1 1 0 01.293.707v2.987h2.987a1 1 0 011 1v2.17a1 1 0 01-1 1H28.97v2.987a1 1 0 01-1 1H25.8a1 1 0 01-1-1V9.657h-2.987a1 1 0 01-1-1v-2.17a1 1 0 011-1H24.8V2.5a1 1 0 011-1h2.17a1 1 0 01.707.293z"  fill="#1fc38e"/>
			</g>
		</g>
	</svg>
	<svg width="34" height="27" id="icon-add-space-active" y="3242">
		<g >
			<path fill="#1fc38e" d="M7.334 11.898l1.133-7.516h-5.89L.116 10.825a2.256 2.256 0 00-.116.716c0 1.58 1.646 2.863 3.681 2.863 1.875 0 3.426-1.093 3.653-2.505zm5.55 2.505c2.033 0 3.681-1.283 3.681-2.863 0-.059 0-.117-.007-.174l-.728-6.984H9.94l-.73 6.979c0 .059-.005.117-.005.179 0 1.58 1.648 2.863 3.681 2.863zm7.158 1.5v5.66H5.726V15.91a6.02 6.02 0 01-2.045.355 6 6 0 01-.818-.07v9.087a2.009 2.009 0 002 2h16.036a2.011 2.011 0 002-2v-9.086a6.159 6.159 0 01-.818.07 5.957 5.957 0 01-2.045-.365zm5.612-5.077L23.19 4.382h-5.891l1.131 7.5c.22 1.417 1.771 2.517 3.655 2.517 2.033 0 3.681-1.283 3.681-2.863a2.306 2.306 0 00-.111-.711z"/>
			<g stroke-linejoin="round" stroke="#fff">
				<path d="M25.3 13.144V9.157h-3.987v-3.17H25.3V2h3.17v3.987h3.987v3.17H28.47v3.987H25.3z" fill="#fff"/>
				<path d="M27.97 2.5H25.8v3.987h-3.987v2.17H25.8v3.987h2.17V8.657h3.987v-2.17H27.97V2.5m.707-.707a1 1 0 01.293.707v2.987h2.987a1 1 0 011 1v2.17a1 1 0 01-1 1H28.97v2.987a1 1 0 01-1 1H25.8a1 1 0 01-1-1V9.657h-2.987a1 1 0 01-1-1v-2.17a1 1 0 011-1H24.8V2.5a1 1 0 011-1h2.17a1 1 0 01.707.293z" fill="#fff"/>
			</g>
		</g>
	</svg>
	<svg width="34" height="34" id="icon-delete-circle" y="3273">
		<g transform="translate(-1135 -600)">
			<circle data-name="Ellipse 45" cx="17" cy="17" r="17" transform="translate(1135 600)"/>
			<path d="M1145.111 624.778a2.229 2.229 0 002.222 2.222h8.889a2.229 2.229 0 002.222-2.222v-13.334h-13.333zm14.445-16.667h-3.889l-1.111-1.111H1149l-1.111 1.111H1144v2.222h15.556z" fill="#fff"/>
		</g>
	</svg>
	<svg width="14" height="15" id="icon-user-view" y="3307">
		<path d="M5.1 1.463a2.372 2.372 0 00-.939 1.963c.048.59.168 1.359.168 1.359s-.237.129-.237.647c.082 1.3.518.74.607 1.31.213 1.38.701 1.136.701 1.886 0 1.25-.515 1.834-2.125 2.527S0 12.726 0 14.242V15h13.644v-.758c0-1.516-1.665-2.391-3.281-3.086S8.24 9.88 8.24 8.629c0-.75.49-.505.706-1.881.09-.571.524-.009.609-1.31 0-.518-.238-.647-.238-.647s.12-.768.168-1.359a2.342 2.342 0 00-1.744-2.347C7.488.827 7.318.417 8.094.006 6.4-.074 6 .814 5.1 1.463z"/>
	</svg>
	<svg width="32" height="30" id="icon-map-white" viewBox="0 0 32 30" y="3337">
		<path fill="#ffffff" d="M31.116 4.97l-9.6-4.8a1.6 1.6 0 00-1.432 0l-9.008 4.5-8.975-2.986a1.6 1.6 0 00-2.1 1.519v20.8a1.6 1.6 0 00.885 1.43l9.6 4.8a1.609 1.609 0 00.715.17 1.577 1.577 0 00.715-.17l9.008-4.5 8.97 2.99a1.612 1.612 0 001.442-.222 1.6 1.6 0 00.664-1.3V6.402a1.592 1.592 0 00-.883-1.43zM12.801 7.391l6.4-3.2v18.821l-6.4 3.2V7.391zm-9.6-1.97l6.4 2.133v18.658l-6.4-3.2V5.421zm25.6 19.563l-6.4-2.134V4.191l6.4 3.2v17.594z"/>
	</svg>
	<svg width="26" height="26" id="icon-call" y="3367">
		<g fill="none" fill-rule="evenodd">
			<circle fill="#1FC38E" cx="13" cy="13" r="13"/>
			<path d="M6.382 11.932c-.247-.667-.426-1.349-.372-2.073.034-.446.201-.826.528-1.139.355-.335.69-.687 1.04-1.028.454-.448 1.024-.445 1.479 0 .28.276.56.557.837.838.27.27.543.54.813.812.474.48.477 1.04.002 1.517-.34.34-.678.684-1.025 1.02-.09.087-.1.161-.05.272.226.545.556 1.03.925 1.485.744.915 1.585 1.727 2.587 2.354.216.134.451.233.676.355.116.063.193.043.287-.054.338-.349.684-.693 1.03-1.036.455-.449 1.023-.452 1.477 0 .557.55 1.11 1.104 1.661 1.661.463.466.46 1.037-.005 1.505-.315.318-.648.62-.943.951-.432.483-.977.642-1.596.608-.903-.048-1.735-.35-2.539-.738a13.815 13.815 0 01-4.58-3.584c-.943-1.125-1.721-2.346-2.232-3.726zm13.602 1.017c0-3.83-3.118-6.949-6.949-6.949v1.323a5.633 5.633 0 015.626 5.626h1.323zm-3.805 0h1.323a4.473 4.473 0 00-4.467-4.467v1.323c.84 0 1.63.327 2.224.92.593.594.92 1.383.92 2.224z" fill="#FFF" fill-rule="nonzero"/>
		</g>
	</svg>
	<svg width="26" height="26" id="icon-email" y="3393">
		<g fill="none" fill-rule="evenodd">
			<circle fill="#1FC38E" cx="13" cy="13" r="13"/>
			<path d="M10.444 15.877v2.678a.434.434 0 00.43.433.43.43 0 00.347-.177l1.557-2.132-2.334-.802zM18.816 5.847a.438.438 0 00-.456-.032L5.235 12.67a.439.439 0 00.06.802l3.65 1.248 7.77-6.645-6.013 7.245 6.115 2.09a.448.448 0 00.369-.04.44.44 0 00.205-.31l1.604-10.791a.438.438 0 00-.179-.421z" fill="#FFF" fill-rule="nonzero"/>
		</g>
	</svg>
	<svg width="15" height="8" id="icon-chevron-down-black" y="3419">
		<path d="M12.831.322a1.112 1.112 0 0 1 1.565 0 1.086 1.086 0 0 1 0 1.55L8.143 8a1.114 1.114 0 0 1-1.566 0L.324 1.872a1.089 1.089 0 0 1 0-1.55 1.112 1.112 0 0 1 1.565 0l5.473 5.026L12.831.322z" fill="#000000" />
	</svg>
</svg>
