<?xml version="1.0" encoding="utf-8"?>
<svg version="1.1" id="Layer_1" xmlns="http://www.w3.org/2000/svg" xmlns:xlink="http://www.w3.org/1999/xlink" x="0px" y="0px"
	 viewBox="0 0 125 75" style="enable-background:new 0 0 125 75;" xml:space="preserve" height="75px" width="125px">
<style type="text/css">
	.st0{enable-background:new;} path {fill: #fff}
</style>
<g class="st0">
	<path d="M15.6,16.7c-0.5-0.7-1.2-1.2-2-1.6s-1.6-0.6-2.4-0.6c-0.4,0-0.8,0-1.2,0.1S9.3,14.8,8.9,15c-0.3,0.2-0.6,0.5-0.8,0.8
		c-0.2,0.3-0.3,0.7-0.3,1.2c0,0.4,0.1,0.8,0.3,1c0.2,0.3,0.4,0.5,0.8,0.7c0.3,0.2,0.7,0.4,1.2,0.6c0.5,0.2,1,0.4,1.6,0.5
		c0.8,0.3,1.7,0.6,2.6,0.9s1.7,0.8,2.5,1.3c0.7,0.6,1.4,1.3,1.9,2.1c0.5,0.8,0.7,1.9,0.7,3.1c0,1.4-0.3,2.7-0.8,3.7
		s-1.2,1.9-2.1,2.6c-0.9,0.7-1.9,1.2-3,1.5c-1.1,0.3-2.3,0.5-3.5,0.5c-1.8,0-3.5-0.3-5.1-0.9c-1.7-0.6-3-1.5-4.1-2.6l3.9-4
		c0.6,0.7,1.4,1.4,2.4,1.9c1,0.5,2,0.8,3,0.8c0.4,0,0.9,0,1.3-0.1c0.4-0.1,0.8-0.2,1.1-0.5c0.3-0.2,0.6-0.5,0.8-0.8
		c0.2-0.3,0.3-0.8,0.3-1.3c0-0.5-0.1-0.9-0.4-1.2c-0.2-0.3-0.6-0.6-1-0.9c-0.4-0.3-1-0.5-1.6-0.7c-0.6-0.2-1.4-0.5-2.2-0.7
		c-0.8-0.3-1.6-0.6-2.3-0.9c-0.8-0.3-1.4-0.8-2-1.3c-0.6-0.5-1.1-1.2-1.4-2c-0.4-0.8-0.5-1.7-0.5-2.9c0-1.4,0.3-2.6,0.8-3.5
		c0.6-1,1.3-1.8,2.2-2.4s1.9-1.1,3.1-1.4c1.1-0.3,2.3-0.4,3.5-0.4c1.4,0,2.8,0.3,4.3,0.8c1.5,0.5,2.7,1.3,3.8,2.3L15.6,16.7z"/>
	<path d="M45.2,17.8c0,1.4-0.3,2.7-0.8,3.7c-0.5,1-1.3,1.8-2.2,2.4s-2,1-3.1,1.3c-1.2,0.3-2.4,0.4-3.7,0.4h-3V35h-6V10.2h9.1
		c1.4,0,2.6,0.1,3.8,0.4c1.2,0.3,2.2,0.7,3.1,1.3c0.9,0.6,1.6,1.4,2.1,2.3C45,15.2,45.2,16.4,45.2,17.8z M39.2,17.9
		c0-0.6-0.1-1.1-0.4-1.4c-0.2-0.4-0.5-0.7-0.9-0.9c-0.4-0.2-0.8-0.4-1.3-0.4c-0.5-0.1-1-0.1-1.6-0.1h-2.6v5.8h2.5
		c0.6,0,1.1,0,1.6-0.1c0.5-0.1,1-0.3,1.4-0.5c0.4-0.2,0.7-0.5,1-0.9C39.1,19,39.2,18.5,39.2,17.9z"/>
	<path d="M66.7,35l-1.9-4.9h-9.6L53.4,35h-6.5l10.4-24.8h5.8L73.4,35H66.7z M60.1,16.8l-3.1,8.5h6.2L60.1,16.8z"/>
	<path d="M95.7,34.6c-1.6,0.7-3.5,1.1-5.6,1.1c-1.9,0-3.7-0.3-5.3-0.9c-1.6-0.6-3-1.5-4.2-2.7c-1.2-1.2-2.1-2.5-2.8-4.1
		c-0.7-1.6-1-3.4-1-5.3c0-2,0.3-3.8,1-5.4c0.7-1.6,1.6-3,2.9-4.1c1.2-1.1,2.6-2,4.3-2.6c1.6-0.6,3.4-0.9,5.3-0.9
		c1.8,0,3.5,0.3,5.2,0.9c1.7,0.6,3.1,1.5,4.1,2.7l-4.1,4.1c-0.6-0.8-1.3-1.3-2.2-1.7c-0.9-0.4-1.8-0.6-2.8-0.6c-1,0-2,0.2-2.9,0.6
		s-1.6,0.9-2.3,1.6c-0.6,0.7-1.1,1.5-1.5,2.4c-0.3,0.9-0.5,1.9-0.5,3c0,1.1,0.2,2.1,0.5,3.1c0.4,0.9,0.8,1.7,1.5,2.4
		c0.6,0.7,1.4,1.2,2.2,1.6s1.8,0.6,2.8,0.6c1.2,0,2.2-0.2,3.1-0.7c0.9-0.5,1.6-1.1,2.1-1.8l4.2,3.9C98.7,32.8,97.3,33.8,95.7,34.6z"
		/>
	<path d="M105.5,35V10.2h16.7v5h-10.9V20h10.3v4.8h-10.3v5.1h11.5V35H105.5z"/>
</g>
<g class="st0">
	<path d="M22.2,64l0.1-15.5h-0.1L16.5,64h-3.7L7.2,48.5H7.1L7.3,64h-5V42.1h7.5l5,14.1h0.1l4.8-14.1h7.7V64H22.2z"/>
	<path d="M49.5,64l-1.7-4.3h-8.5L37.7,64H32l9.2-21.9h5.1L55.4,64H49.5z M43.6,47.9l-2.8,7.5h5.5L43.6,47.9z"/>
	<path d="M67.6,46.6V64h-5.3V46.6h-6.2v-4.5h17.7v4.5H67.6z"/>
	<path d="M93.8,63.6c-1.4,0.7-3.1,1-4.9,1c-1.7,0-3.3-0.3-4.7-0.8c-1.4-0.6-2.7-1.3-3.7-2.4c-1.1-1-1.9-2.2-2.5-3.7
		c-0.6-1.4-0.9-3-0.9-4.7c0-1.8,0.3-3.3,0.9-4.8c0.6-1.4,1.5-2.6,2.5-3.6c1.1-1,2.3-1.8,3.8-2.3c1.4-0.5,3-0.8,4.7-0.8
		c1.6,0,3.1,0.3,4.6,0.8c1.5,0.5,2.7,1.3,3.6,2.4l-3.6,3.6c-0.5-0.7-1.1-1.2-2-1.5c-0.8-0.3-1.6-0.5-2.5-0.5c-0.9,0-1.8,0.2-2.6,0.5
		s-1.4,0.8-2,1.4c-0.6,0.6-1,1.3-1.3,2.1C83,51.1,82.8,52,82.8,53c0,1,0.2,1.9,0.5,2.7c0.3,0.8,0.7,1.5,1.3,2.1c0.5,0.6,1.2,1,2,1.4
		c0.8,0.3,1.6,0.5,2.5,0.5c1.1,0,2-0.2,2.8-0.6c0.8-0.4,1.4-1,1.9-1.6l3.7,3.5C96.4,62.1,95.2,63,93.8,63.6z"/>
	<path d="M116.3,64v-9.2h-8.6V64h-5.3V42.1h5.3v8.3h8.6v-8.3h5.3V64H116.3z"/>
</g>
</svg>
