<svg xmlns="http://www.w3.org/2000/svg" viewBox="0 0 644.9 95.39"><defs><style>.cls-1{fill:#fff;}</style></defs><title>Asset 1</title><g id="Layer_2" data-name="Layer 2"><g id="Layer_1-2" data-name="Layer 1"><path class="cls-1" d="M12.69,74.55A38.44,38.44,0,0,1,0,68.59L5.61,56.15a37.78,37.78,0,0,0,10.9,5.41,40.88,40.88,0,0,0,12.64,2q7,0,10.39-2.09A6.31,6.31,0,0,0,42.91,56a5.32,5.32,0,0,0-2-4.23,15.19,15.19,0,0,0-5.1-2.7q-3.1-1-8.41-2.24a116.9,116.9,0,0,1-13.35-3.87,21.73,21.73,0,0,1-8.91-6.22Q1.43,32.42,1.43,25.27A19.89,19.89,0,0,1,4.79,14,22.62,22.62,0,0,1,14.93,6q6.78-3,16.56-2.95A54.71,54.71,0,0,1,44.84,4.69,39.48,39.48,0,0,1,56.26,9.38l-5.1,12.53a39.84,39.84,0,0,0-19.77-5.6q-6.93,0-10.24,2.24a6.83,6.83,0,0,0-3.31,5.91c0,2.45,1.27,4.26,3.82,5.45a59.88,59.88,0,0,0,11.67,3.52A116.9,116.9,0,0,1,46.68,37.3a22.08,22.08,0,0,1,8.91,6.12q3.72,4.17,3.72,11.31A19.48,19.48,0,0,1,55.9,65.89a23,23,0,0,1-10.24,8,41.79,41.79,0,0,1-16.61,3A58.31,58.31,0,0,1,12.69,74.55Z"/><path class="cls-1" d="M115.82,23.49a25.29,25.29,0,0,1,9.84,9.89,29.8,29.8,0,0,1,3.57,14.82A29.81,29.81,0,0,1,125.66,63a25.29,25.29,0,0,1-9.84,9.89,28,28,0,0,1-13.91,3.52q-10.5,0-16.51-6.63V95.39H69.5V20.79H84.69v6.32Q90.6,20,101.91,20A28,28,0,0,1,115.82,23.49ZM109.2,59.26q3.92-4.12,3.92-11.06T109.2,37.15a14.27,14.27,0,0,0-20.08,0Q85.21,41.28,85.2,48.2t3.92,11.06a14.27,14.27,0,0,0,20.08,0Z"/><path class="cls-1" d="M180.59,26q6.82,6.06,6.83,18.29V75.62H172.54V68.79q-4.48,7.65-16.71,7.65a25.88,25.88,0,0,1-11-2.15,16.24,16.24,0,0,1-7.08-5.91,15.37,15.37,0,0,1-2.45-8.56,14.28,14.28,0,0,1,5.76-12q5.76-4.38,17.78-4.38h12.64q0-5.2-3.16-8t-9.48-2.81A27.6,27.6,0,0,0,150.27,34a22.86,22.86,0,0,0-7.18,3.72L137.38,26.6a34.21,34.21,0,0,1,10.75-4.89A48,48,0,0,1,161,20Q173.77,20,180.59,26ZM167,63.85a10.33,10.33,0,0,0,4.48-5.56v-5.6h-10.9q-9.8,0-9.79,6.42a5.71,5.71,0,0,0,2.4,4.84,10.75,10.75,0,0,0,6.57,1.78A13.83,13.83,0,0,0,167,63.85Z"/><path class="cls-1" d="M213.15,72.82a27.06,27.06,0,0,1-10.9-10,27.36,27.36,0,0,1-3.93-14.58,26.92,26.92,0,0,1,14.83-24.61A33.72,33.72,0,0,1,228.9,20,30.52,30.52,0,0,1,244,23.59a21.51,21.51,0,0,1,9.43,10.35l-12.33,6.62Q236.84,33,228.79,33A14,14,0,0,0,218.5,37.1c-2.72,2.71-4.08,6.42-4.08,11.1s1.36,8.4,4.08,11.11a14,14,0,0,0,10.29,4.08q8.16,0,12.34-7.54l12.33,6.73A22,22,0,0,1,244,72.77a30.22,30.22,0,0,1-15.13,3.67A33.72,33.72,0,0,1,213.15,72.82Z"/><path class="cls-1" d="M315.32,52.69H273.84a12.9,12.9,0,0,0,5.3,8.05,17.54,17.54,0,0,0,10.39,3,21.06,21.06,0,0,0,7.6-1.28,18.49,18.49,0,0,0,6.16-4l8.46,9.17q-7.74,8.87-22.62,8.87a35.79,35.79,0,0,1-16.41-3.62,26.49,26.49,0,0,1-11-10,27.68,27.68,0,0,1-3.87-14.58,28,28,0,0,1,3.82-14.52,26.88,26.88,0,0,1,10.5-10.09,32.46,32.46,0,0,1,29.5-.15,25.25,25.25,0,0,1,10.24,9.94,29.6,29.6,0,0,1,3.72,15C315.62,48.61,315.52,50,315.32,52.69Zm-37.2-17.63a13,13,0,0,0-4.48,8.36h27a13.14,13.14,0,0,0-4.48-8.31,13.43,13.43,0,0,0-9-3.11A13.69,13.69,0,0,0,278.12,35.06Z"/><path class="cls-1" d="M392.26,75.62l-.1-42.8-21,35.26h-7.44l-20.9-34.35V75.62H327.34V4.28H341l26.7,44.33L394,4.28h13.55l.2,71.34Z"/><path class="cls-1" d="M465.23,26q6.82,6.06,6.83,18.29V75.62H457.18V68.79q-4.49,7.65-16.71,7.65a25.88,25.88,0,0,1-11-2.15,16.24,16.24,0,0,1-7.08-5.91A15.37,15.37,0,0,1,420,59.82a14.28,14.28,0,0,1,5.76-12q5.76-4.38,17.78-4.38h12.64q0-5.2-3.16-8t-9.48-2.81A27.6,27.6,0,0,0,434.91,34a22.86,22.86,0,0,0-7.18,3.72L422,26.6a34.21,34.21,0,0,1,10.75-4.89A48,48,0,0,1,445.66,20Q458.41,20,465.23,26ZM451.68,63.85a10.33,10.33,0,0,0,4.48-5.56v-5.6h-10.9q-9.79,0-9.79,6.42a5.71,5.71,0,0,0,2.4,4.84,10.75,10.75,0,0,0,6.57,1.78A13.83,13.83,0,0,0,451.68,63.85Z"/><path class="cls-1" d="M521.79,73a16.25,16.25,0,0,1-5.76,2.6,28.94,28.94,0,0,1-7.18.87q-9.78,0-15.14-5t-5.35-14.67V34.24h-8.45V22h8.45V8.66h15.9V22h13.66V34.24H504.26V56.56a7.47,7.47,0,0,0,1.79,5.35,6.58,6.58,0,0,0,5,1.89,10.22,10.22,0,0,0,6.42-2Z"/><path class="cls-1" d="M539.78,72.82a27,27,0,0,1-10.9-10A27.36,27.36,0,0,1,525,48.2a27.35,27.35,0,0,1,3.93-14.57,27.07,27.07,0,0,1,10.9-10A33.72,33.72,0,0,1,555.53,20a30.54,30.54,0,0,1,15.13,3.62,21.51,21.51,0,0,1,9.43,10.35l-12.34,6.62Q563.47,33,555.42,33a14,14,0,0,0-10.29,4.08c-2.72,2.71-4.08,6.42-4.08,11.1s1.36,8.4,4.08,11.11a14,14,0,0,0,10.29,4.08q8.16,0,12.33-7.54l12.34,6.73a22,22,0,0,1-9.43,10.19,30.24,30.24,0,0,1-15.13,3.67A33.72,33.72,0,0,1,539.78,72.82Z"/><path class="cls-1" d="M638.64,26.09q6.25,6.12,6.26,18.14V75.62H629V46.68q0-6.52-2.85-9.74t-8.25-3.21a12.66,12.66,0,0,0-9.59,3.72q-3.55,3.72-3.56,11.06V75.62h-15.9V0h15.9V26.5a21,21,0,0,1,7.64-4.84A27.67,27.67,0,0,1,622.17,20Q632.37,20,638.64,26.09Z"/></g></g></svg>