<?xml version="1.0" standalone="no"?>
<!DOCTYPE svg PUBLIC "-//W3C//DTD SVG 20010904//EN"
 "http://www.w3.org/TR/2001/REC-SVG-20010904/DTD/svg10.dtd">
<svg version="1.0" xmlns="http://www.w3.org/2000/svg"
 width="240.000000pt" height="240.000000pt" viewBox="0 0 240.000000 240.000000"
 preserveAspectRatio="xMidYMid meet">
<metadata>
Created by potrace 1.11, written by Peter Selinger 2001-2013
</metadata>
<g transform="translate(0.000000,240.000000) scale(0.100000,-0.100000)"
fill="#000000" stroke="none">
<path d="M257 1705 c-50 -17 -74 -44 -85 -93 -17 -74 24 -124 124 -152 24 -7
50 -22 58 -35 13 -20 13 -25 0 -44 -20 -27 -68 -28 -113 0 l-34 20 -30 -32
-29 -33 26 -23 c83 -71 243 -46 279 45 32 81 -2 135 -114 177 -59 23 -69 30
-69 51 0 38 41 52 95 33 l44 -16 30 31 29 31 -21 16 c-54 39 -124 48 -190 24z"/>
<path d="M1592 1702 c-60 -24 -109 -74 -126 -131 -50 -170 68 -316 242 -297
49 5 132 44 132 61 0 3 -15 18 -32 34 l-33 29 -28 -20 c-38 -27 -109 -21 -143
13 -47 47 -53 134 -14 188 37 53 115 68 161 32 l24 -19 31 34 c29 30 30 34 15
47 -50 44 -156 57 -229 29z"/>
<path d="M590 1490 l0 -210 50 0 50 0 0 79 0 78 65 6 c35 3 78 13 95 22 64 33
81 130 32 183 -37 39 -86 52 -199 52 l-93 0 0 -210z m208 108 c34 -34 1 -68
-67 -68 l-41 0 0 40 0 40 48 0 c26 0 53 -5 60 -12z"/>
<path d="M1113 1688 c-4 -7 -8 -17 -9 -23 -2 -9 -64 -154 -99 -230 -7 -16 -25
-58 -39 -93 l-25 -63 56 3 c54 3 57 4 68 38 l12 35 85 3 86 3 16 -41 c16 -40
16 -40 71 -40 30 0 55 2 55 4 0 2 -28 70 -63 152 -35 82 -74 175 -87 207 l-24
57 -47 0 c-27 0 -51 -5 -56 -12z m83 -173 l23 -65 -54 0 -54 0 25 67 c13 38
24 70 24 72 0 16 17 -19 36 -74z"/>
<path d="M1945 1493 l0 -208 148 -3 147 -3 0 46 0 45 -100 0 -100 0 0 40 0 40
90 0 90 0 0 45 0 45 -88 0 -88 0 -2 35 -3 35 96 0 95 0 0 45 0 45 -143 0 -142
0 0 -207z"/>
<path d="M1647 1157 c-93 -30 -151 -112 -150 -213 2 -135 95 -223 233 -220 66
2 150 36 150 61 0 6 -14 23 -31 38 l-31 27 -25 -20 c-50 -39 -138 -17 -169 42
-24 46 -25 87 -4 135 30 68 108 93 171 56 30 -18 30 -18 61 16 33 36 34 35
-26 67 -38 21 -131 27 -179 11z"/>
<path d="M45 940 l0 -210 48 0 49 0 -4 145 c-2 80 -1 145 2 145 3 0 19 -37 34
-82 70 -207 68 -203 108 -206 l35 -3 54 147 54 146 3 -146 3 -146 49 0 50 0 0
210 0 210 -74 0 -74 0 -18 -52 c-9 -29 -30 -91 -47 -137 l-30 -84 -19 54 c-11
30 -34 91 -51 137 l-30 82 -71 0 -71 0 0 -210z"/>
<path d="M785 1118 c-7 -18 -23 -55 -36 -83 -12 -27 -23 -54 -24 -60 -2 -5
-22 -53 -45 -105 -69 -155 -68 -140 -6 -140 53 0 54 0 70 40 l16 40 84 0 84 0
16 -40 16 -40 56 0 c41 0 55 3 51 13 -3 6 -35 84 -72 172 -110 264 -92 235
-147 235 -46 0 -50 -2 -63 -32z m90 -151 l25 -67 -55 0 -55 0 25 66 c14 37 25
69 25 72 0 14 12 -10 35 -71z"/>
<path d="M1090 1105 l0 -45 60 0 60 0 0 -165 0 -165 50 0 50 0 0 165 0 165 60
0 60 0 0 45 0 45 -170 0 -170 0 0 -45z"/>
<path d="M1988 1143 c-2 -5 -3 -98 -3 -208 l1 -200 52 -3 52 -3 0 90 0 91 84
0 83 0 -2 -77 c-1 -43 0 -84 3 -90 2 -8 22 -13 51 -13 l46 0 0 210 1 211 -50
-3 -50 -3 -1 -70 0 -70 -82 -3 -83 -3 0 76 0 75 -49 0 c-28 0 -51 -3 -53 -7z"/>
</g>
</svg>
